<svg width="229" height="161" viewBox="0 0 229 161" fill="none" xmlns="http://www.w3.org/2000/svg">
<g opacity="0.9">
<path d="M227.832 155.97H153.309V160H227.832V155.97Z" fill="white" stroke="#383642" stroke-linecap="round" stroke-linejoin="round"/>
<path d="M192.528 100.785H175.314V109.051H192.528V100.785Z" fill="#7E7D86" stroke="#383642" stroke-linecap="round" stroke-linejoin="round"/>
<path d="M192.521 100.785H186.568V109.051H192.521V100.785Z" fill="white" stroke="#383642" stroke-linecap="round" stroke-linejoin="round"/>
<path d="M168.729 113.247V96.5654H117.064V160H151.042H168.729H202.707V113.247H168.729Z" fill="#E7A03F" stroke="#24232A" stroke-linecap="round" stroke-linejoin="round"/>
<path d="M202.704 113.247H195.846V160H202.704V113.247Z" fill="white" stroke="#383642" stroke-linecap="round" stroke-linejoin="round"/>
<path d="M202.652 109.684H168.633V119.323H202.652V109.684Z" fill="#7E7D86" stroke="#24232A" stroke-linecap="round" stroke-linejoin="round"/>
<path d="M168.71 97.021H134.691V106.66H168.71V97.021Z" fill="#7E7D86" stroke="#383642" stroke-linecap="round" stroke-linejoin="round"/>
<path d="M170.882 94.7017H111.182V104.341H170.882V94.7017Z" fill="white" stroke="#383642" stroke-linecap="round" stroke-linejoin="round"/>
<path d="M205.782 107.465H168.633V117.105H205.782V107.465Z" fill="white" stroke="#383642" stroke-linecap="round" stroke-linejoin="round"/>
<path d="M166.362 125.04H154.971V135.384H166.362V125.04Z" fill="white"/>
<mask id="mask0_669_31133" style="mask-type:luminance" maskUnits="userSpaceOnUse" x="154" y="125" width="13" height="11">
<path d="M166.365 125.04H154.974V135.384H166.365V125.04Z" fill="white"/>
</mask>
<g mask="url(#mask0_669_31133)">
<g style="mix-blend-mode:multiply" opacity="0.6">
<path d="M154.974 132.94V134.987L166.365 125.732V125.04H164.696" fill="white"/>
<path d="M166.364 130.034V127.987L157.257 135.389H159.778" fill="white"/>
</g>
</g>
<path d="M166.362 125.04H154.971V135.384H166.362V125.04Z" stroke="#24232A" stroke-linecap="round" stroke-linejoin="round"/>
<path d="M166.362 122.063H154.971V126.56H166.362V122.063Z" fill="white" stroke="#24232A" stroke-linecap="round" stroke-linejoin="round"/>
<path d="M182.432 125.04H171.041V135.384H182.432V125.04Z" fill="white"/>
<mask id="mask1_669_31133" style="mask-type:luminance" maskUnits="userSpaceOnUse" x="171" y="125" width="12" height="11">
<path d="M182.436 125.04H171.045V135.384H182.436V125.04Z" fill="white"/>
</mask>
<g mask="url(#mask1_669_31133)">
<g style="mix-blend-mode:multiply" opacity="0.6">
<path d="M180.767 125.04L171.045 132.94V134.987L182.436 125.732V125.04H180.767Z" fill="white"/>
<path d="M175.843 135.389L182.435 130.034V127.987L173.322 135.389H175.843Z" fill="white"/>
</g>
</g>
<path d="M182.432 125.04H171.041V135.384H182.432V125.04Z" stroke="#24232A" stroke-linecap="round" stroke-linejoin="round"/>
<path d="M182.432 122.063H171.041V126.56H182.432V122.063Z" fill="white" stroke="#24232A" stroke-linecap="round" stroke-linejoin="round"/>
<path d="M198.498 125.04H187.107V135.384H198.498V125.04Z" fill="white"/>
<mask id="mask2_669_31133" style="mask-type:luminance" maskUnits="userSpaceOnUse" x="187" y="125" width="12" height="11">
<path d="M198.494 125.04H187.104V135.384H198.494V125.04Z" fill="white"/>
</mask>
<g mask="url(#mask2_669_31133)">
<g style="mix-blend-mode:multiply" opacity="0.6">
<path d="M196.826 125.04L187.104 132.94V134.987L198.494 125.732V125.04H196.826Z" fill="white"/>
<path d="M191.908 135.389L198.494 130.034V127.987L189.387 135.389H191.908Z" fill="white"/>
</g>
</g>
<path d="M198.498 125.04H187.107V135.384H198.498V125.04Z" stroke="#24232A" stroke-linecap="round" stroke-linejoin="round"/>
<path d="M198.498 122.063H187.107V126.56H198.498V122.063Z" fill="white" stroke="#24232A" stroke-linecap="round" stroke-linejoin="round"/>
<path d="M166.362 142.467H154.971V152.81H166.362V142.467Z" fill="white"/>
<mask id="mask3_669_31133" style="mask-type:luminance" maskUnits="userSpaceOnUse" x="154" y="142" width="13" height="11">
<path d="M166.365 142.467H154.974V152.81H166.365V142.467Z" fill="white"/>
</mask>
<g mask="url(#mask3_669_31133)">
<g style="mix-blend-mode:multiply" opacity="0.6">
<path d="M154.974 150.366V152.408L166.365 143.159V142.467H164.696" fill="white"/>
<path d="M166.364 147.46V145.413L157.257 152.81H159.778" fill="white"/>
</g>
</g>
<path d="M166.362 142.467H154.971V152.81H166.362V142.467Z" stroke="#24232A" stroke-linecap="round" stroke-linejoin="round"/>
<path d="M166.362 139.484H154.971V143.981H166.362V139.484Z" fill="white" stroke="#24232A" stroke-linecap="round" stroke-linejoin="round"/>
<path d="M182.432 142.467H171.041V152.81H182.432V142.467Z" fill="white"/>
<mask id="mask4_669_31133" style="mask-type:luminance" maskUnits="userSpaceOnUse" x="171" y="142" width="12" height="11">
<path d="M182.436 142.467H171.045V152.81H182.436V142.467Z" fill="white"/>
</mask>
<g mask="url(#mask4_669_31133)">
<g style="mix-blend-mode:multiply" opacity="0.6">
<path d="M171.045 150.366V152.408L182.436 143.159V142.467H180.767" fill="white"/>
<path d="M173.322 152.81H175.843L182.435 147.46V145.413" fill="white"/>
</g>
</g>
<path d="M182.432 142.467H171.041V152.81H182.432V142.467Z" stroke="#24232A" stroke-linecap="round" stroke-linejoin="round"/>
<path d="M182.432 139.484H171.041V143.981H182.432V139.484Z" fill="white" stroke="#24232A" stroke-linecap="round" stroke-linejoin="round"/>
<path d="M198.498 142.467H187.107V152.81H198.498V142.467Z" fill="white"/>
<mask id="mask5_669_31133" style="mask-type:luminance" maskUnits="userSpaceOnUse" x="187" y="142" width="12" height="11">
<path d="M198.494 142.467H187.104V152.81H198.494V142.467Z" fill="white"/>
</mask>
<g mask="url(#mask5_669_31133)">
<g style="mix-blend-mode:multiply" opacity="0.6">
<path d="M196.826 142.467L187.104 150.366V152.408L198.494 143.159V142.467H196.826Z" fill="white"/>
<path d="M191.908 152.81L198.494 147.46V145.413L189.387 152.81H191.908Z" fill="white"/>
</g>
</g>
<path d="M198.498 142.467H187.107V152.81H198.498V142.467Z" stroke="#24232A" stroke-linecap="round" stroke-linejoin="round"/>
<path d="M198.498 139.484H187.107V143.981H198.498V139.484Z" fill="white" stroke="#24232A" stroke-linecap="round" stroke-linejoin="round"/>
<path d="M31.4512 90.8135H18.0957V102.672H31.4512V90.8135Z" fill="#E7A03F" stroke="#7E7D86" stroke-linecap="round" stroke-linejoin="round"/>
<path d="M37.0704 90.8135H23.7148V102.672H37.0704V90.8135Z" fill="#7E7D86" stroke="#7E7D86" stroke-linecap="round" stroke-linejoin="round"/>
<path d="M71.0319 106.702H18.3613V159.999H71.0319V106.702Z" fill="#7E7D86" stroke="#383642" stroke-linecap="round" stroke-linejoin="round"/>
<path d="M15.5 110.018V101.379H70.5375V110.018H15.5Z" fill="#7E7D86" stroke="#7E7D86"/>
<path d="M41.0098 95.6391V81.4551H56.2766V95.6391H41.0098Z" fill="#7E7D86" stroke="#7E7D86"/>
<path d="M48.6473 72.3691L38.7949 81.257H58.4998L48.6473 72.3691Z" fill="#E7A03F" stroke="#7E7D86" stroke-linecap="round" stroke-linejoin="round"/>
<path d="M44.158 80.757L48.7591 73.146L57.1962 80.757H44.158Z" fill="#383642" stroke="#7E7D86"/>
<path d="M41.5371 102.409V94.2549H41.6792V102.409H41.5371Z" fill="#24232A" stroke="#7E7D86"/>
<path d="M55.2637 102.409V94.2549H55.4057V102.409H55.2637Z" fill="#24232A" stroke="#7E7D86"/>
<path d="M47.75 102.409V94.2549H47.892V102.409H47.75Z" fill="#24232A" stroke="#7E7D86"/>
<path d="M49.875 102.409V94.2549H50.0171V102.409H49.875Z" fill="#24232A" stroke="#7E7D86"/>
<path d="M23.5448 113.247H20.7637V124.365H23.5448V113.247Z" fill="white" stroke="#24232A" stroke-linecap="round" stroke-linejoin="round"/>
<path d="M23.5448 130.851H20.7637V141.97H23.5448V130.851Z" fill="white" stroke="#24232A" stroke-linecap="round" stroke-linejoin="round"/>
<path d="M152.241 8.78125H62.5039V160H152.241V8.78125Z" fill="#7E7D86" stroke="#383642" stroke-linecap="round" stroke-linejoin="round"/>
<path d="M152.669 8.78174H100.998V160H152.669V8.78174Z" fill="white" stroke="#383642" stroke-linecap="round" stroke-linejoin="round"/>
<path d="M146.668 8.78174H106.998V160H146.668V8.78174Z" fill="#E7A03F" stroke="#24232A" stroke-linecap="round" stroke-linejoin="round"/>
<path d="M152.669 8.78174H100.998V19.1371H152.669V8.78174Z" fill="#7E7D86" stroke="#7E7D86" stroke-linecap="round" stroke-linejoin="round"/>
<path d="M139.385 141.414H114.283V160H139.385V141.414Z" fill="white"/>
<mask id="mask6_669_31133" style="mask-type:luminance" maskUnits="userSpaceOnUse" x="114" y="141" width="26" height="19">
<path d="M139.383 141.414H114.281V160H139.383V141.414Z" fill="white"/>
</mask>
<g mask="url(#mask6_669_31133)">
<g style="mix-blend-mode:multiply" opacity="0.6">
<path d="M125.278 147.461L114.532 157.243V159.9H114.703L126.852 148.84V147.461H125.278Z" fill="white"/>
<path d="M121.207 159.9L126.852 154.758V151.941L118.112 159.9H121.207Z" fill="white"/>
</g>
</g>
<path d="M139.385 141.414H114.283V160H139.385V141.414Z" stroke="#24232A" stroke-linecap="round" stroke-linejoin="round"/>
<path d="M139.385 141.414H126.834V160H139.385V141.414Z" fill="white"/>
<mask id="mask7_669_31133" style="mask-type:luminance" maskUnits="userSpaceOnUse" x="126" y="141" width="14" height="19">
<path d="M139.381 141.414H126.83V160H139.381V141.414Z" fill="white"/>
</mask>
<g mask="url(#mask7_669_31133)">
<g style="mix-blend-mode:multiply" opacity="0.6">
<path d="M137.594 147.461L126.848 157.242V159.899H127.019L139.168 148.84V147.461H137.594Z" fill="white"/>
<path d="M133.523 159.899L139.168 154.757V151.94L130.428 159.899H133.523Z" fill="white"/>
</g>
</g>
<path d="M139.385 141.414H126.834V160H139.385V141.414Z" stroke="#24232A" stroke-linecap="round" stroke-linejoin="round"/>
<path d="M80.2874 25.7466H68.8965V36.0901H80.2874V25.7466Z" fill="white"/>
<mask id="mask8_669_31133" style="mask-type:luminance" maskUnits="userSpaceOnUse" x="68" y="25" width="13" height="12">
<path d="M80.2874 25.7461H68.8965V36.0897H80.2874V25.7461Z" fill="white"/>
</mask>
<g mask="url(#mask8_669_31133)">
<g style="mix-blend-mode:multiply" opacity="0.6">
<path d="M80.2874 26.4384V25.7461H78.6187L68.8965 33.6399V35.6873" fill="white"/>
<path d="M80.2866 30.7408V28.6934L71.1738 36.0901H73.6946" fill="white"/>
</g>
</g>
<path d="M80.2874 25.7466H68.8965V36.0901H80.2874V25.7466Z" stroke="#24232A" stroke-linecap="round" stroke-linejoin="round"/>
<path d="M80.2874 22.7637H68.8965V27.2609H80.2874V22.7637Z" fill="white" stroke="#24232A" stroke-linecap="round" stroke-linejoin="round"/>
<path d="M96.5726 25.7466H85.1816V36.0901H96.5726V25.7466Z" fill="white"/>
<mask id="mask9_669_31133" style="mask-type:luminance" maskUnits="userSpaceOnUse" x="85" y="25" width="12" height="12">
<path d="M96.5704 25.7466H85.1794V36.0901H96.5704V25.7466Z" fill="white"/>
</mask>
<g mask="url(#mask9_669_31133)">
<g style="mix-blend-mode:multiply" opacity="0.6">
<path d="M85.1794 33.6404V35.6878L96.5704 26.4389V25.7466H94.9017" fill="white"/>
<path d="M96.5696 30.7413V28.6938L87.4568 36.0906H89.9776" fill="white"/>
</g>
</g>
<path d="M96.5726 25.7466H85.1816V36.0901H96.5726V25.7466Z" stroke="#24232A" stroke-linecap="round" stroke-linejoin="round"/>
<path d="M96.5726 22.7637H85.1816V27.2609H96.5726V22.7637Z" fill="white" stroke="#24232A" stroke-linecap="round" stroke-linejoin="round"/>
<path d="M80.2874 45.605H68.8965V55.9485H80.2874V45.605Z" fill="white"/>
<mask id="mask10_669_31133" style="mask-type:luminance" maskUnits="userSpaceOnUse" x="68" y="45" width="13" height="11">
<path d="M80.2874 45.605H68.8965V55.9485H80.2874V45.605Z" fill="white"/>
</mask>
<g mask="url(#mask10_669_31133)">
<g style="mix-blend-mode:multiply" opacity="0.6">
<path d="M68.8965 53.5047V55.5462L80.2874 46.2973V45.605H78.6187" fill="white"/>
<path d="M80.2866 50.5992V48.5518L71.1738 55.9485H73.6946" fill="white"/>
</g>
</g>
<path d="M80.2874 45.605H68.8965V55.9485H80.2874V45.605Z" stroke="#24232A" stroke-linecap="round" stroke-linejoin="round"/>
<path d="M80.2874 42.6226H68.8965V47.1198H80.2874V42.6226Z" fill="white" stroke="#24232A" stroke-linecap="round" stroke-linejoin="round"/>
<path d="M96.5726 45.605H85.1816V55.9485H96.5726V45.605Z" fill="white"/>
<mask id="mask11_669_31133" style="mask-type:luminance" maskUnits="userSpaceOnUse" x="85" y="45" width="12" height="11">
<path d="M96.5704 45.605H85.1794V55.9485H96.5704V45.605Z" fill="white"/>
</mask>
<g mask="url(#mask11_669_31133)">
<g style="mix-blend-mode:multiply" opacity="0.6">
<path d="M96.5704 46.2973V45.605H94.9017L85.1794 53.5047V55.5462" fill="white"/>
<path d="M87.4568 55.9485H89.9776L96.5696 50.5992V48.5518" fill="white"/>
</g>
</g>
<path d="M96.5726 45.605H85.1816V55.9485H96.5726V45.605Z" stroke="#24232A" stroke-linecap="round" stroke-linejoin="round"/>
<path d="M96.5726 42.6226H85.1816V47.1198H96.5726V42.6226Z" fill="white" stroke="#24232A" stroke-linecap="round" stroke-linejoin="round"/>
<path d="M80.2874 65.4634H68.8965V75.8069H80.2874V65.4634Z" fill="white"/>
<mask id="mask12_669_31133" style="mask-type:luminance" maskUnits="userSpaceOnUse" x="68" y="65" width="13" height="11">
<path d="M80.2874 65.4634H68.8965V75.8069H80.2874V65.4634Z" fill="white"/>
</mask>
<g mask="url(#mask12_669_31133)">
<g style="mix-blend-mode:multiply" opacity="0.6">
<path d="M68.8965 73.3631V75.4105L80.2874 66.1557V65.4634H78.6187" fill="white"/>
<path d="M80.2866 70.4581V68.4106L71.1738 75.8074H73.6946" fill="white"/>
</g>
</g>
<path d="M80.2874 65.4634H68.8965V75.8069H80.2874V65.4634Z" stroke="#24232A" stroke-linecap="round" stroke-linejoin="round"/>
<path d="M80.2874 62.4868H68.8965V66.984H80.2874V62.4868Z" fill="white" stroke="#24232A" stroke-linecap="round" stroke-linejoin="round"/>
<path d="M96.5726 65.4634H85.1816V75.8069H96.5726V65.4634Z" fill="white"/>
<mask id="mask13_669_31133" style="mask-type:luminance" maskUnits="userSpaceOnUse" x="85" y="65" width="12" height="11">
<path d="M96.5704 65.4634H85.1794V75.8069H96.5704V65.4634Z" fill="white"/>
</mask>
<g mask="url(#mask13_669_31133)">
<g style="mix-blend-mode:multiply" opacity="0.6">
<path d="M85.1794 73.3631V75.4105L96.5704 66.1557V65.4634H94.9017" fill="white"/>
<path d="M87.4568 75.8074H89.9776L96.5696 70.4581V68.4106" fill="white"/>
</g>
</g>
<path d="M96.5726 65.4634H85.1816V75.8069H96.5726V65.4634Z" stroke="#24232A" stroke-linecap="round" stroke-linejoin="round"/>
<path d="M96.5726 62.4868H85.1816V66.984H96.5726V62.4868Z" fill="white" stroke="#24232A" stroke-linecap="round" stroke-linejoin="round"/>
<path d="M80.2874 85.3223H68.8965V95.6658H80.2874V85.3223Z" fill="white"/>
<mask id="mask14_669_31133" style="mask-type:luminance" maskUnits="userSpaceOnUse" x="68" y="85" width="13" height="11">
<path d="M80.2874 85.3223H68.8965V95.6658H80.2874V85.3223Z" fill="white"/>
</mask>
<g mask="url(#mask14_669_31133)">
<g style="mix-blend-mode:multiply" opacity="0.6">
<path d="M78.6187 85.3223L68.8965 93.222V95.2694L80.2874 86.0146V85.3223H78.6187Z" fill="white"/>
<path d="M73.6946 95.6717L80.2866 90.3165V88.269L71.1738 95.6717H73.6946Z" fill="white"/>
</g>
</g>
<path d="M80.2874 85.3223H68.8965V95.6658H80.2874V85.3223Z" stroke="#24232A" stroke-linecap="round" stroke-linejoin="round"/>
<path d="M80.2874 82.3462H68.8965V86.8434H80.2874V82.3462Z" fill="white" stroke="#24232A" stroke-linecap="round" stroke-linejoin="round"/>
<path d="M96.5726 85.3223H85.1816V95.6658H96.5726V85.3223Z" fill="white"/>
<mask id="mask15_669_31133" style="mask-type:luminance" maskUnits="userSpaceOnUse" x="85" y="85" width="12" height="11">
<path d="M96.5704 85.3223H85.1794V95.6658H96.5704V85.3223Z" fill="white"/>
</mask>
<g mask="url(#mask15_669_31133)">
<g style="mix-blend-mode:multiply" opacity="0.6">
<path d="M85.1794 93.222V95.2694L96.5704 86.0146V85.3223H94.9017" fill="white"/>
<path d="M87.4568 95.6717H89.9776L96.5696 90.3165V88.269" fill="white"/>
</g>
</g>
<path d="M96.5726 85.3223H85.1816V95.6658H96.5726V85.3223Z" stroke="#24232A" stroke-linecap="round" stroke-linejoin="round"/>
<path d="M96.5726 82.3462H85.1816V86.8434H96.5726V82.3462Z" fill="white" stroke="#24232A" stroke-linecap="round" stroke-linejoin="round"/>
<path d="M80.2874 105.182H68.8965V115.525H80.2874V105.182Z" fill="white"/>
<mask id="mask16_669_31133" style="mask-type:luminance" maskUnits="userSpaceOnUse" x="68" y="105" width="13" height="11">
<path d="M80.2874 105.182H68.8965V115.525H80.2874V105.182Z" fill="white"/>
</mask>
<g mask="url(#mask16_669_31133)">
<g style="mix-blend-mode:multiply" opacity="0.6">
<path d="M78.6187 105.182L68.8965 113.081V115.129L80.2874 105.874V105.182H78.6187Z" fill="white"/>
<path d="M73.6946 115.531L80.2866 110.176V108.128L71.1738 115.531H73.6946Z" fill="white"/>
</g>
</g>
<path d="M80.2874 105.182H68.8965V115.525H80.2874V105.182Z" stroke="#24232A" stroke-linecap="round" stroke-linejoin="round"/>
<path d="M80.2874 102.205H68.8965V106.702H80.2874V102.205Z" fill="white" stroke="#24232A" stroke-linecap="round" stroke-linejoin="round"/>
<path d="M96.5726 105.182H85.1816V115.525H96.5726V105.182Z" fill="white"/>
<mask id="mask17_669_31133" style="mask-type:luminance" maskUnits="userSpaceOnUse" x="85" y="105" width="12" height="11">
<path d="M96.5704 105.182H85.1794V115.525H96.5704V105.182Z" fill="white"/>
</mask>
<g mask="url(#mask17_669_31133)">
<g style="mix-blend-mode:multiply" opacity="0.6">
<path d="M94.9017 105.182L85.1794 113.081V115.129L96.5704 105.874V105.182H94.9017Z" fill="white"/>
<path d="M89.9776 115.531L96.5696 110.176V108.128L87.4568 115.531H89.9776Z" fill="white"/>
</g>
</g>
<path d="M96.5726 105.182H85.1816V115.525H96.5726V105.182Z" stroke="#24232A" stroke-linecap="round" stroke-linejoin="round"/>
<path d="M96.5726 102.205H85.1816V106.702H96.5726V102.205Z" fill="white" stroke="#24232A" stroke-linecap="round" stroke-linejoin="round"/>
<path d="M80.2874 125.04H68.8965V135.383H80.2874V125.04Z" fill="white"/>
<mask id="mask18_669_31133" style="mask-type:luminance" maskUnits="userSpaceOnUse" x="68" y="125" width="13" height="11">
<path d="M80.2874 125.04H68.8965V135.383H80.2874V125.04Z" fill="white"/>
</mask>
<g mask="url(#mask18_669_31133)">
<g style="mix-blend-mode:multiply" opacity="0.6">
<path d="M78.6187 125.04L68.8965 132.939V134.987L80.2874 125.732V125.04H78.6187Z" fill="white"/>
<path d="M73.6946 135.389L80.2866 130.034V127.986L71.1738 135.389H73.6946Z" fill="white"/>
</g>
</g>
<path d="M80.2874 125.04H68.8965V135.383H80.2874V125.04Z" stroke="#24232A" stroke-linecap="round" stroke-linejoin="round"/>
<path d="M80.2874 122.063H68.8965V126.56H80.2874V122.063Z" fill="white" stroke="#24232A" stroke-linecap="round" stroke-linejoin="round"/>
<path d="M96.5726 125.04H85.1816V135.383H96.5726V125.04Z" fill="white"/>
<mask id="mask19_669_31133" style="mask-type:luminance" maskUnits="userSpaceOnUse" x="85" y="125" width="12" height="11">
<path d="M96.5704 125.04H85.1794V135.383H96.5704V125.04Z" fill="white"/>
</mask>
<g mask="url(#mask19_669_31133)">
<g style="mix-blend-mode:multiply" opacity="0.6">
<path d="M94.9017 125.04L85.1794 132.939V134.987L96.5704 125.732V125.04H94.9017Z" fill="white"/>
<path d="M89.9776 135.389L96.5696 130.034V127.986L87.4568 135.389H89.9776Z" fill="white"/>
</g>
</g>
<path d="M96.5726 125.04H85.1816V135.383H96.5726V125.04Z" stroke="#24232A" stroke-linecap="round" stroke-linejoin="round"/>
<path d="M96.5726 122.063H85.1816V126.56H96.5726V122.063Z" fill="white" stroke="#24232A" stroke-linecap="round" stroke-linejoin="round"/>
<path d="M116.563 25.7466H105.172V36.0901H116.563V25.7466Z" fill="white"/>
<mask id="mask20_669_31133" style="mask-type:luminance" maskUnits="userSpaceOnUse" x="105" y="25" width="12" height="12">
<path d="M116.559 25.7461H105.168V36.0897H116.559V25.7461Z" fill="white"/>
</mask>
<g mask="url(#mask20_669_31133)">
<g style="mix-blend-mode:multiply" opacity="0.6">
<path d="M105.168 33.6399V35.6873L116.559 26.4384V25.7461H114.89" fill="white"/>
<path d="M116.558 30.7408V28.6934L107.451 36.0901H109.972" fill="white"/>
</g>
</g>
<path d="M116.563 25.7466H105.172V36.0901H116.563V25.7466Z" stroke="#24232A" stroke-linecap="round" stroke-linejoin="round"/>
<path d="M116.563 22.7637H105.172V27.2609H116.563V22.7637Z" fill="white" stroke="#24232A" stroke-linecap="round" stroke-linejoin="round"/>
<path d="M132.846 25.7466H121.455V36.0901H132.846V25.7466Z" fill="white"/>
<mask id="mask21_669_31133" style="mask-type:luminance" maskUnits="userSpaceOnUse" x="121" y="25" width="12" height="12">
<path d="M132.846 25.7461H121.455V36.0897H132.846V25.7461Z" fill="white"/>
</mask>
<g mask="url(#mask21_669_31133)">
<g style="mix-blend-mode:multiply" opacity="0.6">
<path d="M132.846 26.4384V25.7461H131.177L121.455 33.6399V35.6873" fill="white"/>
<path d="M132.845 30.7408V28.6934L123.738 36.0901H126.259" fill="white"/>
</g>
</g>
<path d="M132.846 25.7466H121.455V36.0901H132.846V25.7466Z" stroke="#24232A" stroke-linecap="round" stroke-linejoin="round"/>
<path d="M132.846 22.7637H121.455V27.2609H132.846V22.7637Z" fill="white" stroke="#24232A" stroke-linecap="round" stroke-linejoin="round"/>
<path d="M149.127 25.7466H137.736V36.0901H149.127V25.7466Z" fill="white"/>
<mask id="mask22_669_31133" style="mask-type:luminance" maskUnits="userSpaceOnUse" x="137" y="25" width="13" height="12">
<path d="M149.133 25.7461H137.742V36.0897H149.133V25.7461Z" fill="white"/>
</mask>
<g mask="url(#mask22_669_31133)">
<g style="mix-blend-mode:multiply" opacity="0.6">
<path d="M137.742 33.6399V35.6873L149.133 26.4384V25.7461H147.464" fill="white"/>
<path d="M140.025 36.0901H142.546L149.132 30.7408V28.6934" fill="white"/>
</g>
</g>
<path d="M149.127 25.7466H137.736V36.0901H149.127V25.7466Z" stroke="#24232A" stroke-linecap="round" stroke-linejoin="round"/>
<path d="M149.127 22.7637H137.736V27.2609H149.127V22.7637Z" fill="white" stroke="#24232A" stroke-linecap="round" stroke-linejoin="round"/>
<path d="M116.563 45.605H105.172V55.9485H116.563V45.605Z" fill="white"/>
<mask id="mask23_669_31133" style="mask-type:luminance" maskUnits="userSpaceOnUse" x="105" y="45" width="12" height="11">
<path d="M116.559 45.605H105.168V55.9485H116.559V45.605Z" fill="white"/>
</mask>
<g mask="url(#mask23_669_31133)">
<g style="mix-blend-mode:multiply" opacity="0.6">
<path d="M105.168 53.5047V55.5462L116.559 46.2973V45.605H114.89" fill="white"/>
<path d="M107.451 55.9485H109.972L116.558 50.5992V48.5518" fill="white"/>
</g>
</g>
<path d="M116.563 45.605H105.172V55.9485H116.563V45.605Z" stroke="#24232A" stroke-linecap="round" stroke-linejoin="round"/>
<path d="M116.563 42.6226H105.172V47.1198H116.563V42.6226Z" fill="white" stroke="#24232A" stroke-linecap="round" stroke-linejoin="round"/>
<path d="M132.846 45.605H121.455V55.9485H132.846V45.605Z" fill="white"/>
<mask id="mask24_669_31133" style="mask-type:luminance" maskUnits="userSpaceOnUse" x="121" y="45" width="12" height="11">
<path d="M132.846 45.605H121.455V55.9485H132.846V45.605Z" fill="white"/>
</mask>
<g mask="url(#mask24_669_31133)">
<g style="mix-blend-mode:multiply" opacity="0.6">
<path d="M121.455 53.5047V55.5462L132.846 46.2973V45.605H131.177" fill="white"/>
<path d="M123.738 55.9485H126.259L132.845 50.5992V48.5518" fill="white"/>
</g>
</g>
<path d="M132.846 45.605H121.455V55.9485H132.846V45.605Z" stroke="#24232A" stroke-linecap="round" stroke-linejoin="round"/>
<path d="M132.846 42.6226H121.455V47.1198H132.846V42.6226Z" fill="white" stroke="#24232A" stroke-linecap="round" stroke-linejoin="round"/>
<path d="M149.127 45.605H137.736V55.9485H149.127V45.605Z" fill="white"/>
<mask id="mask25_669_31133" style="mask-type:luminance" maskUnits="userSpaceOnUse" x="137" y="45" width="13" height="11">
<path d="M149.133 45.605H137.742V55.9485H149.133V45.605Z" fill="white"/>
</mask>
<g mask="url(#mask25_669_31133)">
<g style="mix-blend-mode:multiply" opacity="0.6">
<path d="M137.742 53.5047V55.5462L149.133 46.2973V45.605H147.464" fill="white"/>
<path d="M149.132 50.5992V48.5518L140.025 55.9485H142.546" fill="white"/>
</g>
</g>
<path d="M149.127 45.605H137.736V55.9485H149.127V45.605Z" stroke="#24232A" stroke-linecap="round" stroke-linejoin="round"/>
<path d="M149.127 42.6226H137.736V47.1198H149.127V42.6226Z" fill="white" stroke="#24232A" stroke-linecap="round" stroke-linejoin="round"/>
<path d="M116.563 65.4634H105.172V75.8069H116.563V65.4634Z" fill="white"/>
<mask id="mask26_669_31133" style="mask-type:luminance" maskUnits="userSpaceOnUse" x="105" y="65" width="12" height="11">
<path d="M116.559 65.4634H105.168V75.8069H116.559V65.4634Z" fill="white"/>
</mask>
<g mask="url(#mask26_669_31133)">
<g style="mix-blend-mode:multiply" opacity="0.6">
<path d="M105.168 73.3631V75.4105L116.559 66.1557V65.4634H114.89" fill="white"/>
<path d="M116.558 70.4581V68.4106L107.451 75.8074H109.972" fill="white"/>
</g>
</g>
<path d="M116.563 65.4634H105.172V75.8069H116.563V65.4634Z" stroke="#24232A" stroke-linecap="round" stroke-linejoin="round"/>
<path d="M116.563 62.4868H105.172V66.984H116.563V62.4868Z" fill="white" stroke="#24232A" stroke-linecap="round" stroke-linejoin="round"/>
<path d="M132.846 65.4634H121.455V75.8069H132.846V65.4634Z" fill="white"/>
<mask id="mask27_669_31133" style="mask-type:luminance" maskUnits="userSpaceOnUse" x="121" y="65" width="12" height="11">
<path d="M132.846 65.4634H121.455V75.8069H132.846V65.4634Z" fill="white"/>
</mask>
<g mask="url(#mask27_669_31133)">
<g style="mix-blend-mode:multiply" opacity="0.6">
<path d="M121.455 73.3631V75.4105L132.846 66.1557V65.4634H131.177" fill="white"/>
<path d="M132.845 70.4581V68.4106L123.738 75.8074H126.259" fill="white"/>
</g>
</g>
<path d="M132.846 65.4634H121.455V75.8069H132.846V65.4634Z" stroke="#24232A" stroke-linecap="round" stroke-linejoin="round"/>
<path d="M132.846 62.4868H121.455V66.984H132.846V62.4868Z" fill="white" stroke="#24232A" stroke-linecap="round" stroke-linejoin="round"/>
<path d="M149.127 65.4634H137.736V75.8069H149.127V65.4634Z" fill="white"/>
<mask id="mask28_669_31133" style="mask-type:luminance" maskUnits="userSpaceOnUse" x="137" y="65" width="13" height="11">
<path d="M149.133 65.4634H137.742V75.8069H149.133V65.4634Z" fill="white"/>
</mask>
<g mask="url(#mask28_669_31133)">
<g style="mix-blend-mode:multiply" opacity="0.6">
<path d="M137.742 73.3631V75.4105L149.133 66.1557V65.4634H147.464" fill="white"/>
<path d="M140.025 75.8074H142.546L149.132 70.4581V68.4106" fill="white"/>
</g>
</g>
<path d="M149.127 65.4634H137.736V75.8069H149.127V65.4634Z" stroke="#24232A" stroke-linecap="round" stroke-linejoin="round"/>
<path d="M149.127 62.4868H137.736V66.984H149.127V62.4868Z" fill="white" stroke="#24232A" stroke-linecap="round" stroke-linejoin="round"/>
<path d="M116.563 85.3223H105.172V95.6658H116.563V85.3223Z" fill="white"/>
<mask id="mask29_669_31133" style="mask-type:luminance" maskUnits="userSpaceOnUse" x="105" y="85" width="12" height="11">
<path d="M116.559 85.3223H105.168V95.6658H116.559V85.3223Z" fill="white"/>
</mask>
<g mask="url(#mask29_669_31133)">
<g style="mix-blend-mode:multiply" opacity="0.6">
<path d="M114.89 85.3223L105.168 93.222V95.2694L116.559 86.0146V85.3223H114.89Z" fill="white"/>
<path d="M109.972 95.6717L116.558 90.3165V88.269L107.451 95.6717H109.972Z" fill="white"/>
</g>
</g>
<path d="M116.563 85.3223H105.172V95.6658H116.563V85.3223Z" stroke="#24232A" stroke-linecap="round" stroke-linejoin="round"/>
<path d="M116.563 82.3462H105.172V86.8434H116.563V82.3462Z" fill="white" stroke="#24232A" stroke-linecap="round" stroke-linejoin="round"/>
<path d="M132.846 85.3223H121.455V95.6658H132.846V85.3223Z" fill="white"/>
<mask id="mask30_669_31133" style="mask-type:luminance" maskUnits="userSpaceOnUse" x="121" y="85" width="12" height="11">
<path d="M132.846 85.3223H121.455V95.6658H132.846V85.3223Z" fill="white"/>
</mask>
<g mask="url(#mask30_669_31133)">
<g style="mix-blend-mode:multiply" opacity="0.6">
<path d="M121.455 93.222V95.2694L132.846 86.0146V85.3223H131.177" fill="white"/>
<path d="M132.845 90.3165V88.269L123.738 95.6717H126.259" fill="white"/>
</g>
</g>
<path d="M132.846 85.3223H121.455V95.6658H132.846V85.3223Z" stroke="#24232A" stroke-linecap="round" stroke-linejoin="round"/>
<path d="M132.846 82.3462H121.455V86.8434H132.846V82.3462Z" fill="white" stroke="#24232A" stroke-linecap="round" stroke-linejoin="round"/>
<path d="M149.127 85.3223H137.736V95.6658H149.127V85.3223Z" fill="white"/>
<mask id="mask31_669_31133" style="mask-type:luminance" maskUnits="userSpaceOnUse" x="137" y="85" width="13" height="11">
<path d="M149.133 85.3223H137.742V95.6658H149.133V85.3223Z" fill="white"/>
</mask>
<g mask="url(#mask31_669_31133)">
<g style="mix-blend-mode:multiply" opacity="0.6">
<path d="M137.742 93.222V95.2694L149.133 86.0146V85.3223H147.464" fill="white"/>
<path d="M140.025 95.6717H142.546L149.132 90.3165V88.269" fill="white"/>
</g>
</g>
<path d="M149.127 85.3223H137.736V95.6658H149.127V85.3223Z" stroke="#24232A" stroke-linecap="round" stroke-linejoin="round"/>
<path d="M149.127 82.3462H137.736V86.8434H149.127V82.3462Z" fill="white" stroke="#24232A" stroke-linecap="round" stroke-linejoin="round"/>
<path d="M116.563 105.182H105.172V115.525H116.563V105.182Z" fill="white"/>
<mask id="mask32_669_31133" style="mask-type:luminance" maskUnits="userSpaceOnUse" x="105" y="105" width="12" height="11">
<path d="M116.559 105.181H105.168V115.525H116.559V105.181Z" fill="white"/>
</mask>
<g mask="url(#mask32_669_31133)">
<g style="mix-blend-mode:multiply" opacity="0.6">
<path d="M114.89 105.181L105.168 113.081V115.128L116.559 105.873V105.181H114.89Z" fill="white"/>
<path d="M109.972 115.531L116.558 110.175V108.128L107.451 115.531H109.972Z" fill="white"/>
</g>
</g>
<path d="M116.563 105.182H105.172V115.525H116.563V105.182Z" stroke="#24232A" stroke-linecap="round" stroke-linejoin="round"/>
<path d="M116.563 102.205H105.172V106.702H116.563V102.205Z" fill="white" stroke="#24232A" stroke-linecap="round" stroke-linejoin="round"/>
<path d="M132.846 105.182H121.455V115.525H132.846V105.182Z" fill="white"/>
<mask id="mask33_669_31133" style="mask-type:luminance" maskUnits="userSpaceOnUse" x="121" y="105" width="12" height="11">
<path d="M132.846 105.181H121.455V115.525H132.846V105.181Z" fill="white"/>
</mask>
<g mask="url(#mask33_669_31133)">
<g style="mix-blend-mode:multiply" opacity="0.6">
<path d="M131.177 105.181L121.455 113.081V115.128L132.846 105.873V105.181H131.177Z" fill="white"/>
<path d="M126.259 115.531L132.845 110.175V108.128L123.738 115.531H126.259Z" fill="white"/>
</g>
</g>
<path d="M132.846 105.182H121.455V115.525H132.846V105.182Z" stroke="#24232A" stroke-linecap="round" stroke-linejoin="round"/>
<path d="M132.846 102.205H121.455V106.702H132.846V102.205Z" fill="white" stroke="#24232A" stroke-linecap="round" stroke-linejoin="round"/>
<path d="M149.127 105.182H137.736V115.525H149.127V105.182Z" fill="white"/>
<mask id="mask34_669_31133" style="mask-type:luminance" maskUnits="userSpaceOnUse" x="137" y="105" width="13" height="11">
<path d="M149.133 105.181H137.742V115.525H149.133V105.181Z" fill="white"/>
</mask>
<g mask="url(#mask34_669_31133)">
<g style="mix-blend-mode:multiply" opacity="0.6">
<path d="M149.133 105.873V105.181H147.464L137.742 113.081V115.128" fill="white"/>
<path d="M140.025 115.531H142.546L149.132 110.175V108.128" fill="white"/>
</g>
</g>
<path d="M149.127 105.182H137.736V115.525H149.127V105.182Z" stroke="#24232A" stroke-linecap="round" stroke-linejoin="round"/>
<path d="M149.127 102.205H137.736V106.702H149.127V102.205Z" fill="white" stroke="#24232A" stroke-linecap="round" stroke-linejoin="round"/>
<path d="M116.563 125.04H105.172V135.383H116.563V125.04Z" fill="white"/>
<mask id="mask35_669_31133" style="mask-type:luminance" maskUnits="userSpaceOnUse" x="105" y="125" width="12" height="11">
<path d="M116.559 125.04H105.168V135.383H116.559V125.04Z" fill="white"/>
</mask>
<g mask="url(#mask35_669_31133)">
<g style="mix-blend-mode:multiply" opacity="0.6">
<path d="M114.89 125.04L105.168 132.939V134.987L116.559 125.732V125.04H114.89Z" fill="white"/>
<path d="M109.972 135.389L116.558 130.034V127.986L107.451 135.389H109.972Z" fill="white"/>
</g>
</g>
<path d="M116.563 125.04H105.172V135.383H116.563V125.04Z" stroke="#24232A" stroke-linecap="round" stroke-linejoin="round"/>
<path d="M116.563 122.063H105.172V126.56H116.563V122.063Z" fill="white" stroke="#24232A" stroke-linecap="round" stroke-linejoin="round"/>
<path d="M132.846 125.04H121.455V135.383H132.846V125.04Z" fill="white"/>
<mask id="mask36_669_31133" style="mask-type:luminance" maskUnits="userSpaceOnUse" x="121" y="125" width="12" height="11">
<path d="M132.846 125.04H121.455V135.383H132.846V125.04Z" fill="white"/>
</mask>
<g mask="url(#mask36_669_31133)">
<g style="mix-blend-mode:multiply" opacity="0.6">
<path d="M131.177 125.04L121.455 132.939V134.987L132.846 125.732V125.04H131.177Z" fill="white"/>
<path d="M126.259 135.389L132.845 130.034V127.986L123.738 135.389H126.259Z" fill="white"/>
</g>
</g>
<path d="M132.846 125.04H121.455V135.383H132.846V125.04Z" stroke="#24232A" stroke-linecap="round" stroke-linejoin="round"/>
<path d="M132.846 122.063H121.455V126.56H132.846V122.063Z" fill="white" stroke="#24232A" stroke-linecap="round" stroke-linejoin="round"/>
<path d="M149.127 125.04H137.736V135.383H149.127V125.04Z" fill="white"/>
<mask id="mask37_669_31133" style="mask-type:luminance" maskUnits="userSpaceOnUse" x="137" y="125" width="13" height="11">
<path d="M149.133 125.04H137.742V135.383H149.133V125.04Z" fill="white"/>
</mask>
<g mask="url(#mask37_669_31133)">
<g style="mix-blend-mode:multiply" opacity="0.6">
<path d="M147.464 125.04L137.742 132.939V134.987L149.133 125.732V125.04H147.464Z" fill="white"/>
<path d="M142.546 135.389L149.132 130.034V127.986L140.025 135.389H142.546Z" fill="white"/>
</g>
</g>
<path d="M149.127 125.04H137.736V135.383H149.127V125.04Z" stroke="#24232A" stroke-linecap="round" stroke-linejoin="round"/>
<path d="M149.127 122.063H137.736V126.56H149.127V122.063Z" fill="white" stroke="#24232A" stroke-linecap="round" stroke-linejoin="round"/>
<path d="M148.988 141.384H104.613V147.011H148.988V141.384Z" fill="#24232A" stroke="#24232A" stroke-linecap="round" stroke-linejoin="round"/>
<path d="M148.988 139.757H104.613V145.384H148.988V139.757Z" fill="white" stroke="#24232A" stroke-linecap="round" stroke-linejoin="round"/>
<path d="M86.6295 1H62.457V15.8999H86.6295V1Z" fill="#7E7D86" stroke="#383642" stroke-linecap="round" stroke-linejoin="round"/>
<path d="M87.0625 1H78.6953V15.8999H87.0625V1Z" fill="white" stroke="#383642" stroke-linecap="round" stroke-linejoin="round"/>
<path d="M147.896 4.63867H137.961V15.8994H147.896V4.63867Z" fill="#7E7D86" stroke="#383642" stroke-linecap="round" stroke-linejoin="round"/>
<path d="M154.424 8.78125H60.3203V15.9058H154.424V8.78125Z" fill="#7E7D86" stroke="#383642" stroke-linecap="round" stroke-linejoin="round"/>
<path d="M154.423 8.78125H98.1484V15.9058H154.423V8.78125Z" fill="white" stroke="#383642" stroke-linecap="round" stroke-linejoin="round"/>
<path d="M104.282 155.97H1V160H104.282V155.97Z" fill="#7E7D86" stroke="#383642" stroke-linecap="round" stroke-linejoin="round"/>
<path d="M104.282 155.97H43.7773V160H104.282V155.97Z" fill="white" stroke="#24232A" stroke-linecap="round" stroke-linejoin="round"/>
</g>
</svg>
