<svg width="52" height="52" viewBox="0 0 52 52" fill="none" xmlns="http://www.w3.org/2000/svg">
<rect width="52" height="52" rx="14" fill="#E7A03F"/>
<path d="M17.3604 27.3604H24.6396V34.6396C24.6396 35.3795 25.2482 36 26 36C26.7518 36 27.3604 35.3795 27.3604 34.6396V27.3604H34.6396C35.3795 27.3604 36 26.7518 36 26C36 25.2482 35.3795 24.6396 34.6396 24.6396H27.3604V17.3604C27.3604 16.6205 26.7518 16 26 16C25.2482 16 24.6396 16.6205 24.6396 17.3604V24.6396H17.3604C16.6205 24.6396 16 25.2482 16 26C16 26.7518 16.6205 27.3604 17.3604 27.3604Z" fill="#24232A"/>
</svg>
