<svg width="24" height="24" viewBox="0 0 24 24" fill="none" xmlns="http://www.w3.org/2000/svg">
<path d="M5.99997 21.4974C5.30128 21.4974 4.70993 21.2554 4.22595 20.7714C3.74198 20.2874 3.5 19.6961 3.5 18.9974V17.4013C3.5 17.1436 3.58623 16.9285 3.75868 16.7561C3.93111 16.5836 4.14617 16.4974 4.40385 16.4974H6.5V3.18396C6.5 3.08012 6.54199 3.01057 6.62598 2.97531C6.70994 2.94006 6.79039 2.95448 6.86733 3.01858L7.60193 3.62818C7.68911 3.70255 7.78334 3.73973 7.88462 3.73973C7.98591 3.73973 8.08013 3.70255 8.1673 3.62818L9.00577 2.94358C9.09296 2.86922 9.18718 2.83203 9.28845 2.83203C9.38973 2.83203 9.48397 2.86922 9.57115 2.94358L10.4096 3.62818C10.4968 3.70255 10.591 3.73973 10.6923 3.73973C10.7936 3.73973 10.8878 3.70255 10.975 3.62818L11.8135 2.94358C11.9006 2.86922 11.9949 2.83203 12.0961 2.83203C12.1974 2.83203 12.2916 2.86922 12.3788 2.94358L13.2173 3.62818C13.3045 3.70255 13.3987 3.73973 13.5 3.73973C13.6013 3.73973 13.6955 3.70255 13.7827 3.62818L14.6211 2.94358C14.7083 2.86922 14.8025 2.83203 14.9038 2.83203C15.0051 2.83203 15.0993 2.86922 15.1865 2.94358L16.025 3.62818C16.1121 3.70255 16.2064 3.73973 16.3077 3.73973C16.4089 3.73973 16.5032 3.70255 16.5904 3.62818L17.4288 2.94358C17.516 2.86922 17.6102 2.83203 17.7115 2.83203C17.8128 2.83203 17.907 2.86922 17.9942 2.94358L18.8327 3.62818C18.9198 3.70255 19.014 3.73973 19.1153 3.73973C19.2166 3.73973 19.3108 3.70255 19.398 3.62818L20.1326 3.01858C20.2096 2.95448 20.29 2.94006 20.374 2.97531C20.458 3.01057 20.5 3.08012 20.5 3.18396V18.9974C20.5 19.6961 20.258 20.2874 19.774 20.7714C19.29 21.2554 18.6987 21.4974 18 21.4974H5.99997ZM18 19.9974C18.2833 19.9974 18.5208 19.9016 18.7125 19.7099C18.9041 19.5182 19 19.2807 19 18.9974V4.99738H7.99998V16.4974H16.0961C16.3538 16.4974 16.5689 16.5836 16.7413 16.7561C16.9138 16.9285 17 17.1436 17 17.4013V18.9974C17 19.2807 17.0958 19.5182 17.2875 19.7099C17.4791 19.9016 17.7166 19.9974 18 19.9974ZM9.94228 7.24741H14.1154C14.3282 7.24741 14.5064 7.3192 14.65 7.46278C14.7936 7.60637 14.8654 7.78457 14.8654 7.99738C14.8654 8.2102 14.7936 8.3884 14.65 8.53198C14.5064 8.67556 14.3282 8.74736 14.1154 8.74736H9.94228C9.72946 8.74736 9.55126 8.67556 9.40768 8.53198C9.26409 8.3884 9.1923 8.2102 9.1923 7.99738C9.1923 7.78457 9.26409 7.60637 9.40768 7.46278C9.55126 7.3192 9.72946 7.24741 9.94228 7.24741ZM9.94228 10.2474H14.1154C14.3282 10.2474 14.5064 10.3192 14.65 10.4628C14.7936 10.6064 14.8654 10.7846 14.8654 10.9974C14.8654 11.2102 14.7936 11.3884 14.65 11.532C14.5064 11.6756 14.3282 11.7474 14.1154 11.7474H9.94228C9.72946 11.7474 9.55126 11.6756 9.40768 11.532C9.26409 11.3884 9.1923 11.2102 9.1923 10.9974C9.1923 10.7846 9.26409 10.6064 9.40768 10.4628C9.55126 10.3192 9.72946 10.2474 9.94228 10.2474ZM16.9423 8.88198C16.6974 8.88198 16.4888 8.79577 16.3163 8.62333C16.1439 8.4509 16.0577 8.24225 16.0577 7.99738C16.0577 7.75252 16.1439 7.54386 16.3163 7.37143C16.4888 7.199 16.6974 7.11278 16.9423 7.11278C17.1871 7.11278 17.3958 7.199 17.5682 7.37143C17.7407 7.54386 17.8269 7.75252 17.8269 7.99738C17.8269 8.24225 17.7407 8.4509 17.5682 8.62333C17.3958 8.79577 17.1871 8.88198 16.9423 8.88198ZM16.9423 11.882C16.6974 11.882 16.4888 11.7958 16.3163 11.6233C16.1439 11.4509 16.0577 11.2422 16.0577 10.9974C16.0577 10.7525 16.1439 10.5439 16.3163 10.3714C16.4888 10.199 16.6974 10.1128 16.9423 10.1128C17.1871 10.1128 17.3958 10.199 17.5682 10.3714C17.7407 10.5439 17.8269 10.7525 17.8269 10.9974C17.8269 11.2422 17.7407 11.4509 17.5682 11.6233C17.3958 11.7958 17.1871 11.882 16.9423 11.882ZM5.99997 19.9974H15.5V17.9974H4.99997V18.9974C4.99997 19.2807 5.09581 19.5182 5.28747 19.7099C5.47914 19.9016 5.71664 19.9974 5.99997 19.9974Z" fill="#EFA949"/>
</svg>
