<svg width="28" height="28" viewBox="0 0 28 28" fill="none" xmlns="http://www.w3.org/2000/svg">
<g id="Icons/Apple">
<path id="Vector" d="M17.43 6.05516C17.8711 5.54682 18.2074 4.95636 18.4196 4.31769C18.6318 3.67902 18.7158 3.00471 18.6667 2.3335C17.3126 2.4428 16.0557 3.07964 15.1667 4.10683C14.741 4.59913 14.4184 5.17185 14.218 5.79108C14.0176 6.41031 13.9435 7.06345 14 7.71183C14.6605 7.71733 15.3134 7.57077 15.9082 7.2835C16.503 6.99622 17.0237 6.57593 17.43 6.05516ZM20.37 14.7352C20.3778 13.8412 20.6133 12.964 21.0542 12.1862C21.4951 11.4085 22.1269 10.756 22.89 10.2902C22.4084 9.59627 21.7718 9.02413 21.0306 8.61912C20.2895 8.2141 19.4641 7.98734 18.62 7.95683C16.8 7.77016 15.12 9.0185 14.1517 9.0185C13.1834 9.0185 11.8184 7.98016 10.3017 8.0035C9.31017 8.03616 8.34404 8.32524 7.49754 8.84255C6.65104 9.35985 5.95306 10.0877 5.47169 10.9552C3.41835 14.5252 4.94669 19.8335 7.00002 22.7152C7.93335 24.1268 9.10002 25.7252 10.64 25.6668C12.18 25.6085 12.6817 24.7102 14.4667 24.7102C16.2517 24.7102 16.8 25.6668 18.3167 25.6318C19.8334 25.5968 20.9067 24.1852 21.8867 22.7735C22.5809 21.7486 23.1232 20.6287 23.4967 19.4485C22.5721 19.0542 21.7832 18.3977 21.2276 17.56C20.6719 16.7224 20.3738 15.7403 20.37 14.7352Z" fill="black"/>
</g>
</svg>
