<svg width="28" height="28" viewBox="0 0 28 28" fill="none" xmlns="http://www.w3.org/2000/svg">
<g id="Icons/Apple">
<path id="Vector" d="M17.43 6.05614C17.8711 5.5478 18.2074 4.95734 18.4196 4.31867C18.6318 3.67999 18.7158 3.00569 18.6667 2.33447C17.3126 2.44377 16.0557 3.08062 15.1667 4.10781C14.741 4.60011 14.4184 5.17283 14.218 5.79206C14.0176 6.41128 13.9435 7.06442 14 7.71281C14.6605 7.71831 15.3134 7.57175 15.9082 7.28447C16.503 6.9972 17.0237 6.57691 17.43 6.05614ZM20.37 14.7361C20.3778 13.8422 20.6133 12.9649 21.0542 12.1872C21.4951 11.4095 22.1269 10.7569 22.89 10.2911C22.4084 9.59725 21.7718 9.02511 21.0306 8.62009C20.2895 8.21507 19.4641 7.98832 18.62 7.95781C16.8 7.77114 15.12 9.01947 14.1517 9.01947C13.1834 9.01947 11.8184 7.98114 10.3017 8.00447C9.31017 8.03713 8.34404 8.32622 7.49754 8.84352C6.65104 9.36083 5.95306 10.0887 5.47169 10.9561C3.41835 14.5261 4.94669 19.8345 7.00002 22.7161C7.93335 24.1278 9.10002 25.7261 10.64 25.6678C12.18 25.6095 12.6817 24.7111 14.4667 24.7111C16.2517 24.7111 16.8 25.6678 18.3167 25.6328C19.8334 25.5978 20.9067 24.1861 21.8867 22.7745C22.5809 21.7496 23.1232 20.6297 23.4967 19.4495C22.5721 19.0552 21.7832 18.3986 21.2276 17.561C20.6719 16.7234 20.3738 15.7413 20.37 14.7361Z" fill="#7E7D86"/>
</g>
</svg>
