<svg width="23" height="24" viewBox="0 0 23 24" fill="none" xmlns="http://www.w3.org/2000/svg">
<g id="Communication / Phone">
<path id="Vector" d="M7.09763 2.99988H4.54376C3.57237 2.99988 2.78491 3.84818 2.78491 4.89462C2.78491 13.7893 9.47833 20.9999 17.7351 20.9999C18.7065 20.9999 19.4939 20.1516 19.4939 19.1051V16.3539C19.4939 15.5361 19.0317 14.8007 18.3269 14.497L15.8802 13.4427C15.2471 13.1699 14.5261 13.2929 14.0022 13.7632L13.3702 14.3306C12.6325 14.9928 11.5478 14.9398 10.8688 14.2084L9.0893 12.2914C8.41032 11.5599 8.36112 10.3914 8.97583 9.59678L9.50253 8.91591C9.93909 8.35157 10.0533 7.57483 9.80005 6.89276L8.8214 4.2571C8.53946 3.49778 7.85679 2.99988 7.09763 2.99988Z" stroke="#EFA949" stroke-width="1.5" stroke-linecap="round" stroke-linejoin="round"/>
</g>
</svg>
