<svg width="24" height="24" viewBox="0 0 24 24" fill="none" xmlns="http://www.w3.org/2000/svg">
<g id="Icons/Check cr-fr">
<path id="Shape" d="M12 1.99805C6.47715 1.99805 2 6.4752 2 11.998C2 17.5209 6.47715 21.998 12 21.998C17.5228 21.998 22 17.5209 22 11.998C22 6.4752 17.5228 1.99805 12 1.99805Z" fill="#4D9E70"/>
<path id="Shape_2" fill-rule="evenodd" clip-rule="evenodd" d="M15.7071 9.29094C16.0976 9.68146 16.0976 10.3146 15.7071 10.7052L11.7071 14.7052C11.3166 15.0957 10.6834 15.0957 10.2929 14.7052L8.29289 12.7052C7.90237 12.3146 7.90237 11.6815 8.29289 11.2909C8.68342 10.9004 9.31658 10.9004 9.70711 11.2909L11 12.5838L14.2929 9.29094C14.6834 8.90042 15.3166 8.90042 15.7071 9.29094Z" fill="white"/>
</g>
</svg>
