<svg width="28" height="28" viewBox="0 0 28 28" fill="none" xmlns="http://www.w3.org/2000/svg">
<g id="Icons/Google">
<g id="Vector">
<path d="M22.7266 14.2C22.7266 13.46 22.6653 12.92 22.5327 12.36H13.9102V15.7H18.9714C18.8694 16.53 18.3184 17.78 17.0939 18.62L17.0767 18.7318L19.803 20.8015L19.9919 20.82C21.7265 19.25 22.7266 16.94 22.7266 14.2Z" fill="#3843FF"/>
<path d="M13.9102 23C16.3898 23 18.4714 22.2 19.9919 20.82L17.0939 18.62C16.3184 19.15 15.2776 19.52 13.9102 19.52C11.4817 19.52 9.42047 17.95 8.68571 15.78L8.57801 15.789L5.7432 17.939L5.70613 18.04C7.21632 20.9799 10.3184 23 13.9102 23Z" fill="#3BA935"/>
<path d="M8.68571 15.78C8.49183 15.22 8.37963 14.62 8.37963 14C8.37963 13.38 8.49183 12.78 8.67551 12.22L8.67037 12.1007L5.80004 9.91619L5.70613 9.95996C5.08371 11.18 4.72656 12.55 4.72656 14C4.72656 15.45 5.08371 16.82 5.70613 18.04L8.68571 15.78Z" fill="#FEA800"/>
<path d="M13.9102 8.47998C15.6347 8.47998 16.7979 9.20997 17.4612 9.82001L20.0531 7.34C18.4613 5.89 16.3898 5 13.9102 5C10.3184 5 7.21632 7.01998 5.70613 9.95996L8.67551 12.22C9.42047 10.05 11.4817 8.47998 13.9102 8.47998Z" fill="#E3524F"/>
</g>
</g>
</svg>
