<svg width="16" height="20" viewBox="0 0 16 20" fill="none" xmlns="http://www.w3.org/2000/svg">
<g id="Map Icon">
<path id="Vector" d="M2.26037 2.55251C3.70759 0.918165 5.67045 0 7.71712 0C9.7638 0 11.7267 0.918165 13.1739 2.55251C14.6211 4.18686 15.4341 6.4035 15.4341 8.71482C15.4341 11.0261 14.6211 13.2428 13.1739 14.8771L12.1219 16.0521C11.3464 16.9109 10.3405 18.0158 9.10325 19.367C8.73139 19.773 8.23438 20 7.71712 20C7.19987 20 6.70286 19.773 6.331 19.367L3.23704 15.9681C2.84708 15.5367 2.52271 15.1734 2.26037 14.8771C1.54375 14.0679 0.975291 13.1072 0.587454 12.0499C0.199618 10.9925 0 9.85927 0 8.71482C0 7.57036 0.199618 6.43711 0.587454 5.37978C0.975291 4.32244 1.54375 3.36173 2.26037 2.55251ZM12.2335 3.61342C11.6403 2.94356 10.9361 2.41222 10.161 2.04972C9.38596 1.68722 8.55527 1.50067 7.71637 1.50071C6.87747 1.50076 6.04679 1.6874 5.27176 2.04999C4.49674 2.41257 3.79254 2.944 3.19937 3.61392C2.60621 4.28385 2.1357 5.07915 1.81471 5.95442C1.49371 6.8297 1.32852 7.7678 1.32856 8.71517C1.3286 9.66254 1.49387 10.6006 1.81495 11.4759C2.13602 12.3511 2.6066 13.1463 3.19982 13.8162L4.51858 15.2855C5.24355 16.0872 6.15641 17.088 7.25538 18.2881C7.3793 18.4232 7.54485 18.4987 7.71712 18.4987C7.8894 18.4987 8.05494 18.4232 8.17887 18.2881L11.1877 14.9852C11.6043 14.5238 11.9526 14.1345 12.2335 13.8162C13.4313 12.4635 14.1042 10.6288 14.1042 8.71582C14.1042 6.80281 13.4313 4.96815 12.2335 3.61543V3.61342ZM7.71712 5.98647C8.06651 5.98647 8.41249 6.06418 8.73528 6.21518C9.05808 6.36617 9.35138 6.58749 9.59843 6.86649C9.84549 7.14549 10.0415 7.47671 10.1752 7.84125C10.3089 8.20578 10.3777 8.59649 10.3777 8.99105C10.3777 9.38562 10.3089 9.77633 10.1752 10.1409C10.0415 10.5054 9.84549 10.8366 9.59843 11.1156C9.35138 11.3946 9.05808 11.6159 8.73528 11.7669C8.41249 11.9179 8.06651 11.9956 7.71712 11.9956C7.02002 11.9813 6.35577 11.6585 5.86728 11.0966C5.37879 10.5348 5.1051 9.77892 5.1051 8.99155C5.1051 8.20419 5.37879 7.44828 5.86728 6.88647C6.35577 6.32466 7.02002 6.00184 7.71712 5.98747V5.98647ZM7.71712 7.48776C7.36407 7.48776 7.02548 7.64614 6.77584 7.92806C6.5262 8.20999 6.38595 8.59236 6.38595 8.99105C6.38595 9.38975 6.5262 9.77212 6.77584 10.054C7.02548 10.336 7.36407 10.4943 7.71712 10.4943C8.06411 10.4842 8.39388 10.3215 8.63613 10.0407C8.87838 9.76002 9.01395 9.38354 9.01395 8.99155C9.01395 8.59957 8.87838 8.22309 8.63613 7.94237C8.39388 7.66164 8.06411 7.49887 7.71712 7.48876V7.48776Z" fill="#EFA949"/>
</g>
</svg>
