<svg width="22" height="24" viewBox="0 0 22 24" fill="none" xmlns="http://www.w3.org/2000/svg">
<g id="Communication / Bell">
<path id="Vector" d="M13.6625 16.9999H8.19751V17.9999C8.19751 19.6567 9.42089 20.9999 10.93 20.9999C12.4391 20.9999 13.6625 19.6567 13.6625 17.9999V16.9999Z" stroke="#EFA949" stroke-width="1.5" stroke-linecap="round" stroke-linejoin="round"/>
<path id="Vector_2" d="M4.55414 16.9999H17.3058C17.8088 16.9999 18.2166 16.5522 18.2166 15.9999V15.4141C18.2166 15.1489 18.1206 14.8945 17.9498 14.707L17.4845 14.1961C17.3701 14.0705 17.3058 13.9 17.3058 13.7223V9.99988C17.3058 6.13388 14.4512 2.99987 10.9299 2.99988C7.40868 2.99989 4.55414 6.13389 4.55414 9.99988V13.7223C4.55414 13.9 4.48983 14.0705 4.37536 14.1962L3.91009 14.707C3.73927 14.8945 3.64331 15.1489 3.64331 15.4141V15.9999C3.64331 16.5522 4.0511 16.9999 4.55414 16.9999Z" stroke="#EFA949" stroke-width="1.5" stroke-linecap="round" stroke-linejoin="round"/>
</g>
</svg>
