<svg width="60" height="45" viewBox="0 0 60 45" fill="none" xmlns="http://www.w3.org/2000/svg">
<g clip-path="url(#clip0_894_35498)">
<path d="M39.3915 2.29199H32.0872C31.799 2.29199 31.5654 2.52558 31.5654 2.81373V10.118C31.5654 10.4062 31.799 10.6398 32.0872 10.6398H39.3915C39.6796 10.6398 39.9132 10.4062 39.9132 10.118V2.81373C39.9132 2.52558 39.6796 2.29199 39.3915 2.29199Z" stroke="#24232A" stroke-linecap="round" stroke-linejoin="round"/>
<path d="M37.8262 8.55273H37.8272V8.55372H37.8262V8.55273Z" stroke="#24232A" stroke-width="1.04347" stroke-linecap="round" stroke-linejoin="round"/>
<path d="M35.7393 8.55273H35.7402V8.55372H35.7393V8.55273Z" stroke="#24232A" stroke-width="1.04347" stroke-linecap="round" stroke-linejoin="round"/>
<path d="M33.6523 8.55273L33.6533 8.55372" stroke="#24232A" stroke-width="1.04347" stroke-linecap="round" stroke-linejoin="round"/>
<path d="M37.8262 6.46582H37.8272V6.46681H37.8262V6.46582Z" stroke="#24232A" stroke-width="1.04347" stroke-linecap="round" stroke-linejoin="round"/>
<path d="M35.7393 6.46582H35.7402V6.46681H35.7393V6.46582Z" stroke="#24232A" stroke-width="1.04347" stroke-linecap="round" stroke-linejoin="round"/>
<path d="M33.6523 6.46582H33.6533V6.46681H33.6523V6.46582Z" stroke="#24232A" stroke-width="1.04347" stroke-linecap="round" stroke-linejoin="round"/>
<path d="M31.5654 4.37891H39.9132" stroke="#24232A" stroke-linecap="round" stroke-linejoin="round"/>
<path d="M37.8262 1.24805V2.29152" stroke="#24232A" stroke-linecap="round" stroke-linejoin="round"/>
<path d="M33.6523 1.24805V2.29152" stroke="#24232A" stroke-linecap="round" stroke-linejoin="round"/>
</g>
<g clip-path="url(#clip1_894_35498)">
<path d="M27.3389 4.81152L29.1586 3.36039L27.4238 1.36256" stroke="#24232A" stroke-linecap="round" stroke-linejoin="round"/>
<path d="M19.7246 11.7158C19.3407 10.5396 19.3121 9.27778 19.6422 8.07369C19.9723 6.8696 20.6478 5.77156 21.5919 4.90438C22.536 4.0372 23.7108 3.43566 24.9829 3.16812C26.255 2.90059 27.5732 2.9778 28.7878 3.39097" stroke="#24232A" stroke-width="1.4" stroke-linecap="round" stroke-linejoin="round"/>
</g>
<path d="M24.556 22.1655C27.3122 22.1655 29.5465 19.9359 29.5465 17.1853C29.5465 14.4347 27.3122 12.2051 24.556 12.2051C21.7997 12.2051 19.5654 14.4347 19.5654 17.1853C19.5654 19.9359 21.7997 22.1655 24.556 22.1655Z" stroke="#24232A" stroke-linecap="round" stroke-linejoin="round"/>
<path d="M25.9943 15.3163C25.6525 14.9752 25.0506 14.7381 24.4972 14.7232M24.4972 14.7232C23.8384 14.7053 23.2495 15.0026 23.2495 15.8144C23.2495 17.3084 25.9943 16.5614 25.9943 18.0555C25.9943 18.9076 25.2637 19.2736 24.4972 19.2462M24.4972 14.7232V13.8223M23 18.5535C23.3214 18.9818 23.9198 19.2258 24.4972 19.2462M24.4972 19.2462V20.2965" stroke="#24232A" stroke-linecap="round" stroke-linejoin="round"/>
<path d="M33.3504 19.5171C32.721 19.8777 31.0707 20.6141 32.0758 21.5356C32.5668 21.9858 33.1137 22.3077 33.8012 22.3077H37.7243C38.4118 22.3077 38.9587 21.9858 39.4497 21.5356C40.4548 20.6141 38.8045 19.8777 38.1751 19.5171C36.6992 18.6714 34.8264 18.6714 33.3504 19.5171Z" stroke="#24232A" stroke-linecap="round" stroke-linejoin="round"/>
<path d="M38.0506 14.8877C38.0506 16.1488 37.0262 17.171 35.7626 17.171C34.499 17.171 33.4746 16.1488 33.4746 14.8877C33.4746 13.6267 34.499 12.6045 35.7626 12.6045C37.0262 12.6045 38.0506 13.6267 38.0506 14.8877Z" stroke="#24232A"/>
<path d="M6.5453 33.3916C6.5453 34.0876 6.3053 34.6676 5.8253 35.1316C5.3533 35.5876 4.6293 35.8156 3.6533 35.8156H2.0453V39.3076H0.953297V30.9436H3.6533C4.5973 30.9436 5.3133 31.1716 5.8013 31.6276C6.2973 32.0836 6.5453 32.6716 6.5453 33.3916ZM3.6533 34.9156C4.2613 34.9156 4.7093 34.7836 4.9973 34.5196C5.2853 34.2556 5.4293 33.8796 5.4293 33.3916C5.4293 32.3596 4.8373 31.8436 3.6533 31.8436H2.0453V34.9156H3.6533ZM7.49452 35.9956C7.49452 35.3236 7.63052 34.7356 7.90252 34.2316C8.17452 33.7196 8.54652 33.3236 9.01852 33.0436C9.49852 32.7636 10.0305 32.6236 10.6145 32.6236C11.1905 32.6236 11.6905 32.7476 12.1145 32.9956C12.5385 33.2436 12.8545 33.5556 13.0625 33.9316V32.7316H14.1665V39.3076H13.0625V38.0836C12.8465 38.4676 12.5225 38.7876 12.0905 39.0436C11.6665 39.2916 11.1705 39.4156 10.6025 39.4156C10.0185 39.4156 9.49052 39.2716 9.01852 38.9836C8.54652 38.6956 8.17452 38.2916 7.90252 37.7716C7.63052 37.2516 7.49452 36.6596 7.49452 35.9956ZM13.0625 36.0076C13.0625 35.5116 12.9625 35.0796 12.7625 34.7116C12.5625 34.3436 12.2905 34.0636 11.9465 33.8716C11.6105 33.6716 11.2385 33.5716 10.8305 33.5716C10.4225 33.5716 10.0505 33.6676 9.71452 33.8596C9.37852 34.0516 9.11052 34.3316 8.91052 34.6996C8.71052 35.0676 8.61052 35.4996 8.61052 35.9956C8.61052 36.4996 8.71052 36.9396 8.91052 37.3156C9.11052 37.6836 9.37852 37.9676 9.71452 38.1676C10.0505 38.3596 10.4225 38.4556 10.8305 38.4556C11.2385 38.4556 11.6105 38.3596 11.9465 38.1676C12.2905 37.9676 12.5625 37.6836 12.7625 37.3156C12.9625 36.9396 13.0625 36.5036 13.0625 36.0076ZM21.6759 32.7316L17.7159 42.4036H16.5879L17.8839 39.2356L15.2319 32.7316H16.4439L18.5079 38.0596L20.5479 32.7316H21.6759ZM30.6816 32.6116C31.1936 32.6116 31.6496 32.7196 32.0496 32.9356C32.4496 33.1436 32.7656 33.4596 32.9976 33.8836C33.2296 34.3076 33.3456 34.8236 33.3456 35.4316V39.3076H32.2656V35.5876C32.2656 34.9316 32.1016 34.4316 31.7736 34.0876C31.4536 33.7356 31.0176 33.5596 30.4656 33.5596C29.8976 33.5596 29.4456 33.7436 29.1096 34.1116C28.7736 34.4716 28.6056 34.9956 28.6056 35.6836V39.3076H27.5256V35.5876C27.5256 34.9316 27.3616 34.4316 27.0336 34.0876C26.7136 33.7356 26.2776 33.5596 25.7256 33.5596C25.1576 33.5596 24.7056 33.7436 24.3696 34.1116C24.0336 34.4716 23.8656 34.9956 23.8656 35.6836V39.3076H22.7736V32.7316H23.8656V33.6796C24.0816 33.3356 24.3696 33.0716 24.7296 32.8876C25.0976 32.7036 25.5016 32.6116 25.9416 32.6116C26.4936 32.6116 26.9816 32.7356 27.4056 32.9836C27.8296 33.2316 28.1456 33.5956 28.3536 34.0756C28.5376 33.6116 28.8416 33.2516 29.2656 32.9956C29.6896 32.7396 30.1616 32.6116 30.6816 32.6116ZM41.1369 35.7676C41.1369 35.9756 41.1249 36.1956 41.1009 36.4276H35.8449C35.8849 37.0756 36.1049 37.5836 36.5049 37.9516C36.9129 38.3116 37.4049 38.4916 37.9809 38.4916C38.4529 38.4916 38.8449 38.3836 39.1569 38.1676C39.4769 37.9436 39.7009 37.6476 39.8289 37.2796H41.0049C40.8289 37.9116 40.4769 38.4276 39.9489 38.8276C39.4209 39.2196 38.7649 39.4156 37.9809 39.4156C37.3569 39.4156 36.7969 39.2756 36.3009 38.9956C35.8129 38.7156 35.4289 38.3196 35.1489 37.8076C34.8689 37.2876 34.7289 36.6876 34.7289 36.0076C34.7289 35.3276 34.8649 34.7316 35.1369 34.2196C35.4089 33.7076 35.7889 33.3156 36.2769 33.0436C36.7729 32.7636 37.3409 32.6236 37.9809 32.6236C38.6049 32.6236 39.1569 32.7596 39.6369 33.0316C40.1169 33.3036 40.4849 33.6796 40.7409 34.1596C41.0049 34.6316 41.1369 35.1676 41.1369 35.7676ZM40.0089 35.5396C40.0089 35.1236 39.9169 34.7676 39.7329 34.4716C39.5489 34.1676 39.2969 33.9396 38.9769 33.7876C38.6649 33.6276 38.3169 33.5476 37.9329 33.5476C37.3809 33.5476 36.9089 33.7236 36.5169 34.0756C36.1329 34.4276 35.9129 34.9156 35.8569 35.5396H40.0089ZM45.7823 32.6116C46.5823 32.6116 47.2303 32.8556 47.7263 33.3436C48.2223 33.8236 48.4703 34.5196 48.4703 35.4316V39.3076H47.3903V35.5876C47.3903 34.9316 47.2263 34.4316 46.8983 34.0876C46.5703 33.7356 46.1223 33.5596 45.5543 33.5596C44.9783 33.5596 44.5183 33.7396 44.1743 34.0996C43.8383 34.4596 43.6703 34.9836 43.6703 35.6716V39.3076H42.5783V32.7316H43.6703V33.6676C43.8863 33.3316 44.1783 33.0716 44.5463 32.8876C44.9223 32.7036 45.3343 32.6116 45.7823 32.6116ZM51.5861 33.6316V37.5076C51.5861 37.8276 51.6541 38.0556 51.7901 38.1916C51.9261 38.3196 52.1621 38.3836 52.4981 38.3836H53.3021V39.3076H52.3181C51.7101 39.3076 51.2541 39.1676 50.9501 38.8876C50.6461 38.6076 50.4941 38.1476 50.4941 37.5076V33.6316H49.6421V32.7316H50.4941V31.0756H51.5861V32.7316H53.3021V33.6316H51.5861ZM56.9532 39.4156C56.4492 39.4156 55.9972 39.3316 55.5972 39.1636C55.1972 38.9876 54.8812 38.7476 54.6492 38.4436C54.4172 38.1316 54.2892 37.7756 54.2652 37.3756H55.3932C55.4252 37.7036 55.5772 37.9716 55.8492 38.1796C56.1292 38.3876 56.4932 38.4916 56.9412 38.4916C57.3572 38.4916 57.6852 38.3996 57.9252 38.2156C58.1652 38.0316 58.2852 37.7996 58.2852 37.5196C58.2852 37.2316 58.1572 37.0196 57.9012 36.8836C57.6452 36.7396 57.2492 36.5996 56.7132 36.4636C56.2252 36.3356 55.8252 36.2076 55.5132 36.0796C55.2092 35.9436 54.9452 35.7476 54.7212 35.4916C54.5052 35.2276 54.3972 34.8836 54.3972 34.4596C54.3972 34.1236 54.4972 33.8156 54.6972 33.5356C54.8972 33.2556 55.1812 33.0356 55.5492 32.8756C55.9172 32.7076 56.3372 32.6236 56.8092 32.6236C57.5372 32.6236 58.1252 32.8076 58.5732 33.1756C59.0212 33.5436 59.2612 34.0476 59.2932 34.6876H58.2012C58.1772 34.3436 58.0372 34.0676 57.7812 33.8596C57.5332 33.6516 57.1972 33.5476 56.7732 33.5476C56.3812 33.5476 56.0692 33.6316 55.8372 33.7996C55.6052 33.9676 55.4892 34.1876 55.4892 34.4596C55.4892 34.6756 55.5572 34.8556 55.6932 34.9996C55.8372 35.1356 56.0132 35.2476 56.2212 35.3356C56.4372 35.4156 56.7332 35.5076 57.1092 35.6116C57.5812 35.7396 57.9652 35.8676 58.2612 35.9956C58.5572 36.1156 58.8092 36.2996 59.0172 36.5476C59.2332 36.7956 59.3452 37.1196 59.3532 37.5196C59.3532 37.8796 59.2532 38.2036 59.0532 38.4916C58.8532 38.7796 58.5692 39.0076 58.2012 39.1756C57.8412 39.3356 57.4252 39.4156 56.9532 39.4156Z" fill="#24232A"/>
<defs>
<clipPath id="clip0_894_35498">
<rect width="12.5217" height="12.5217" fill="white" transform="translate(29.4785 0.205078)"/>
</clipPath>
<clipPath id="clip1_894_35498">
<rect width="12.5217" height="12" fill="white" transform="translate(18 0.205078)"/>
</clipPath>
</defs>
</svg>
