<svg width="60" height="45" viewBox="0 0 60 45" fill="none" xmlns="http://www.w3.org/2000/svg">
<g clip-path="url(#clip0_894_35494)">
<path d="M39.3915 2.18945H32.0872C31.799 2.18945 31.5654 2.42304 31.5654 2.71119V10.0155C31.5654 10.3037 31.799 10.5372 32.0872 10.5372H39.3915C39.6796 10.5372 39.9132 10.3037 39.9132 10.0155V2.71119C39.9132 2.42304 39.6796 2.18945 39.3915 2.18945Z" stroke="#EFA949" stroke-linecap="round" stroke-linejoin="round"/>
<path d="M37.8262 8.4502H37.8272V8.45118H37.8262V8.4502Z" stroke="#EFA949" stroke-width="1.04347" stroke-linecap="round" stroke-linejoin="round"/>
<path d="M35.7393 8.4502H35.7402V8.45118H35.7393V8.4502Z" stroke="#EFA949" stroke-width="1.04347" stroke-linecap="round" stroke-linejoin="round"/>
<path d="M33.6523 8.4502L33.6533 8.45118" stroke="#EFA949" stroke-width="1.04347" stroke-linecap="round" stroke-linejoin="round"/>
<path d="M37.8262 6.36328H37.8272V6.36427H37.8262V6.36328Z" stroke="#EFA949" stroke-width="1.04347" stroke-linecap="round" stroke-linejoin="round"/>
<path d="M35.7393 6.36328H35.7402V6.36427H35.7393V6.36328Z" stroke="#EFA949" stroke-width="1.04347" stroke-linecap="round" stroke-linejoin="round"/>
<path d="M33.6523 6.36328H33.6533V6.36427H33.6523V6.36328Z" stroke="#EFA949" stroke-width="1.04347" stroke-linecap="round" stroke-linejoin="round"/>
<path d="M31.5654 4.27637H39.9132" stroke="#EFA949" stroke-linecap="round" stroke-linejoin="round"/>
<path d="M37.8262 1.14551V2.18898" stroke="#EFA949" stroke-linecap="round" stroke-linejoin="round"/>
<path d="M33.6523 1.14551V2.18898" stroke="#EFA949" stroke-linecap="round" stroke-linejoin="round"/>
</g>
<g clip-path="url(#clip1_894_35494)">
<path d="M27.3389 4.70898L29.1586 3.25785L27.4238 1.26002" stroke="#EFA949" stroke-linecap="round" stroke-linejoin="round"/>
<path d="M19.7246 11.6133C19.3407 10.4371 19.3121 9.17524 19.6422 7.97115C19.9723 6.76706 20.6478 5.66902 21.5919 4.80184C22.536 3.93466 23.7108 3.33312 24.9829 3.06558C26.255 2.79805 27.5732 2.87526 28.7878 3.28844" stroke="#EFA949" stroke-width="1.4" stroke-linecap="round" stroke-linejoin="round"/>
</g>
<path d="M24.556 22.063C27.3122 22.063 29.5465 19.8333 29.5465 17.0828C29.5465 14.3322 27.3122 12.1025 24.556 12.1025C21.7997 12.1025 19.5654 14.3322 19.5654 17.0828C19.5654 19.8333 21.7997 22.063 24.556 22.063Z" stroke="#EFA949" stroke-linecap="round" stroke-linejoin="round"/>
<path d="M25.9943 15.2148C25.6525 14.8736 25.0506 14.6366 24.4972 14.6216M24.4972 14.6216C23.8384 14.6037 23.2495 14.901 23.2495 15.7128C23.2495 17.2069 25.9943 16.4598 25.9943 17.9539C25.9943 18.806 25.2637 19.1721 24.4972 19.1447M24.4972 14.6216V13.7207M23 18.4519C23.3214 18.8802 23.9198 19.1242 24.4972 19.1447M24.4972 19.1447V20.195" stroke="#EFA949" stroke-linecap="round" stroke-linejoin="round"/>
<path d="M33.3504 19.4146C32.721 19.7752 31.0707 20.5116 32.0758 21.4331C32.5668 21.8832 33.1137 22.2052 33.8012 22.2052H37.7243C38.4118 22.2052 38.9587 21.8832 39.4497 21.4331C40.4548 20.5116 38.8045 19.7752 38.1751 19.4146C36.6992 18.5688 34.8264 18.5688 33.3504 19.4146Z" stroke="#EFA949" stroke-linecap="round" stroke-linejoin="round"/>
<path d="M38.0506 14.7852C38.0506 16.0462 37.0262 17.0685 35.7626 17.0685C34.499 17.0685 33.4746 16.0462 33.4746 14.7852C33.4746 13.5242 34.499 12.502 35.7626 12.502C37.0262 12.502 38.0506 13.5242 38.0506 14.7852Z" stroke="#EFA949"/>
<path d="M6.5453 33.2891C6.5453 33.9851 6.3053 34.5651 5.8253 35.0291C5.3533 35.4851 4.6293 35.7131 3.6533 35.7131H2.0453V39.2051H0.953297V30.8411H3.6533C4.5973 30.8411 5.3133 31.0691 5.8013 31.5251C6.2973 31.9811 6.5453 32.5691 6.5453 33.2891ZM3.6533 34.8131C4.2613 34.8131 4.7093 34.6811 4.9973 34.4171C5.2853 34.1531 5.4293 33.7771 5.4293 33.2891C5.4293 32.2571 4.8373 31.7411 3.6533 31.7411H2.0453V34.8131H3.6533ZM7.49452 35.8931C7.49452 35.2211 7.63052 34.6331 7.90252 34.1291C8.17452 33.6171 8.54652 33.2211 9.01852 32.9411C9.49852 32.6611 10.0305 32.5211 10.6145 32.5211C11.1905 32.5211 11.6905 32.6451 12.1145 32.8931C12.5385 33.1411 12.8545 33.4531 13.0625 33.8291V32.6291H14.1665V39.2051H13.0625V37.9811C12.8465 38.3651 12.5225 38.6851 12.0905 38.9411C11.6665 39.1891 11.1705 39.3131 10.6025 39.3131C10.0185 39.3131 9.49052 39.1691 9.01852 38.8811C8.54652 38.5931 8.17452 38.1891 7.90252 37.6691C7.63052 37.1491 7.49452 36.5571 7.49452 35.8931ZM13.0625 35.9051C13.0625 35.4091 12.9625 34.9771 12.7625 34.6091C12.5625 34.2411 12.2905 33.9611 11.9465 33.7691C11.6105 33.5691 11.2385 33.4691 10.8305 33.4691C10.4225 33.4691 10.0505 33.5651 9.71452 33.7571C9.37852 33.9491 9.11052 34.2291 8.91052 34.5971C8.71052 34.9651 8.61052 35.3971 8.61052 35.8931C8.61052 36.3971 8.71052 36.8371 8.91052 37.2131C9.11052 37.5811 9.37852 37.8651 9.71452 38.0651C10.0505 38.2571 10.4225 38.3531 10.8305 38.3531C11.2385 38.3531 11.6105 38.2571 11.9465 38.0651C12.2905 37.8651 12.5625 37.5811 12.7625 37.2131C12.9625 36.8371 13.0625 36.4011 13.0625 35.9051ZM21.6759 32.6291L17.7159 42.3011H16.5879L17.8839 39.1331L15.2319 32.6291H16.4439L18.5079 37.9571L20.5479 32.6291H21.6759ZM30.6816 32.5091C31.1936 32.5091 31.6496 32.6171 32.0496 32.8331C32.4496 33.0411 32.7656 33.3571 32.9976 33.7811C33.2296 34.2051 33.3456 34.7211 33.3456 35.3291V39.2051H32.2656V35.4851C32.2656 34.8291 32.1016 34.3291 31.7736 33.9851C31.4536 33.6331 31.0176 33.4571 30.4656 33.4571C29.8976 33.4571 29.4456 33.6411 29.1096 34.0091C28.7736 34.3691 28.6056 34.8931 28.6056 35.5811V39.2051H27.5256V35.4851C27.5256 34.8291 27.3616 34.3291 27.0336 33.9851C26.7136 33.6331 26.2776 33.4571 25.7256 33.4571C25.1576 33.4571 24.7056 33.6411 24.3696 34.0091C24.0336 34.3691 23.8656 34.8931 23.8656 35.5811V39.2051H22.7736V32.6291H23.8656V33.5771C24.0816 33.2331 24.3696 32.9691 24.7296 32.7851C25.0976 32.6011 25.5016 32.5091 25.9416 32.5091C26.4936 32.5091 26.9816 32.6331 27.4056 32.8811C27.8296 33.1291 28.1456 33.4931 28.3536 33.9731C28.5376 33.5091 28.8416 33.1491 29.2656 32.8931C29.6896 32.6371 30.1616 32.5091 30.6816 32.5091ZM41.1369 35.6651C41.1369 35.8731 41.1249 36.0931 41.1009 36.3251H35.8449C35.8849 36.9731 36.1049 37.4811 36.5049 37.8491C36.9129 38.2091 37.4049 38.3891 37.9809 38.3891C38.4529 38.3891 38.8449 38.2811 39.1569 38.0651C39.4769 37.8411 39.7009 37.5451 39.8289 37.1771H41.0049C40.8289 37.8091 40.4769 38.3251 39.9489 38.7251C39.4209 39.1171 38.7649 39.3131 37.9809 39.3131C37.3569 39.3131 36.7969 39.1731 36.3009 38.8931C35.8129 38.6131 35.4289 38.2171 35.1489 37.7051C34.8689 37.1851 34.7289 36.5851 34.7289 35.9051C34.7289 35.2251 34.8649 34.6291 35.1369 34.1171C35.4089 33.6051 35.7889 33.2131 36.2769 32.9411C36.7729 32.6611 37.3409 32.5211 37.9809 32.5211C38.6049 32.5211 39.1569 32.6571 39.6369 32.9291C40.1169 33.2011 40.4849 33.5771 40.7409 34.0571C41.0049 34.5291 41.1369 35.0651 41.1369 35.6651ZM40.0089 35.4371C40.0089 35.0211 39.9169 34.6651 39.7329 34.3691C39.5489 34.0651 39.2969 33.8371 38.9769 33.6851C38.6649 33.5251 38.3169 33.4451 37.9329 33.4451C37.3809 33.4451 36.9089 33.6211 36.5169 33.9731C36.1329 34.3251 35.9129 34.8131 35.8569 35.4371H40.0089ZM45.7823 32.5091C46.5823 32.5091 47.2303 32.7531 47.7263 33.2411C48.2223 33.7211 48.4703 34.4171 48.4703 35.3291V39.2051H47.3903V35.4851C47.3903 34.8291 47.2263 34.3291 46.8983 33.9851C46.5703 33.6331 46.1223 33.4571 45.5543 33.4571C44.9783 33.4571 44.5183 33.6371 44.1743 33.9971C43.8383 34.3571 43.6703 34.8811 43.6703 35.5691V39.2051H42.5783V32.6291H43.6703V33.5651C43.8863 33.2291 44.1783 32.9691 44.5463 32.7851C44.9223 32.6011 45.3343 32.5091 45.7823 32.5091ZM51.5861 33.5291V37.4051C51.5861 37.7251 51.6541 37.9531 51.7901 38.0891C51.9261 38.2171 52.1621 38.2811 52.4981 38.2811H53.3021V39.2051H52.3181C51.7101 39.2051 51.2541 39.0651 50.9501 38.7851C50.6461 38.5051 50.4941 38.0451 50.4941 37.4051V33.5291H49.6421V32.6291H50.4941V30.9731H51.5861V32.6291H53.3021V33.5291H51.5861ZM56.9532 39.3131C56.4492 39.3131 55.9972 39.2291 55.5972 39.0611C55.1972 38.8851 54.8812 38.6451 54.6492 38.3411C54.4172 38.0291 54.2892 37.6731 54.2652 37.2731H55.3932C55.4252 37.6011 55.5772 37.8691 55.8492 38.0771C56.1292 38.2851 56.4932 38.3891 56.9412 38.3891C57.3572 38.3891 57.6852 38.2971 57.9252 38.1131C58.1652 37.9291 58.2852 37.6971 58.2852 37.4171C58.2852 37.1291 58.1572 36.9171 57.9012 36.7811C57.6452 36.6371 57.2492 36.4971 56.7132 36.3611C56.2252 36.2331 55.8252 36.1051 55.5132 35.9771C55.2092 35.8411 54.9452 35.6451 54.7212 35.3891C54.5052 35.1251 54.3972 34.7811 54.3972 34.3571C54.3972 34.0211 54.4972 33.7131 54.6972 33.4331C54.8972 33.1531 55.1812 32.9331 55.5492 32.7731C55.9172 32.6051 56.3372 32.5211 56.8092 32.5211C57.5372 32.5211 58.1252 32.7051 58.5732 33.0731C59.0212 33.4411 59.2612 33.9451 59.2932 34.5851H58.2012C58.1772 34.2411 58.0372 33.9651 57.7812 33.7571C57.5332 33.5491 57.1972 33.4451 56.7732 33.4451C56.3812 33.4451 56.0692 33.5291 55.8372 33.6971C55.6052 33.8651 55.4892 34.0851 55.4892 34.3571C55.4892 34.5731 55.5572 34.7531 55.6932 34.8971C55.8372 35.0331 56.0132 35.1451 56.2212 35.2331C56.4372 35.3131 56.7332 35.4051 57.1092 35.5091C57.5812 35.6371 57.9652 35.7651 58.2612 35.8931C58.5572 36.0131 58.8092 36.1971 59.0172 36.4451C59.2332 36.6931 59.3452 37.0171 59.3532 37.4171C59.3532 37.7771 59.2532 38.1011 59.0532 38.3891C58.8532 38.6771 58.5692 38.9051 58.2012 39.0731C57.8412 39.2331 57.4252 39.3131 56.9532 39.3131Z" fill="#EFA949"/>
<defs>
<clipPath id="clip0_894_35494">
<rect width="12.5217" height="12.5217" fill="white" transform="translate(29.4785 0.102539)"/>
</clipPath>
<clipPath id="clip1_894_35494">
<rect width="12.5217" height="12" fill="white" transform="translate(18 0.102539)"/>
</clipPath>
</defs>
</svg>
