<svg width="60" height="45" viewBox="0 0 60 45" fill="none" xmlns="http://www.w3.org/2000/svg">
<path d="M39.3915 2.08691H32.0872C31.799 2.08691 31.5654 2.3205 31.5654 2.60865V9.91297C31.5654 10.2011 31.799 10.4347 32.0872 10.4347H39.3915C39.6796 10.4347 39.9132 10.2011 39.9132 9.91297V2.60865C39.9132 2.3205 39.6796 2.08691 39.3915 2.08691Z" stroke="#F4F3F2" stroke-linecap="round" stroke-linejoin="round"/>
<path d="M37.8262 8.34766H37.8272V8.34864H37.8262V8.34766Z" stroke="#F4F3F2" stroke-width="1.04347" stroke-linecap="round" stroke-linejoin="round"/>
<path d="M35.7393 8.34766H35.7402V8.34864H35.7393V8.34766Z" stroke="#F4F3F2" stroke-width="1.04347" stroke-linecap="round" stroke-linejoin="round"/>
<path d="M33.6523 8.34766L33.6533 8.34864" stroke="#F4F3F2" stroke-width="1.04347" stroke-linecap="round" stroke-linejoin="round"/>
<path d="M37.8262 6.26074H37.8272V6.26173H37.8262V6.26074Z" stroke="#F4F3F2" stroke-width="1.04347" stroke-linecap="round" stroke-linejoin="round"/>
<path d="M35.7393 6.26074H35.7402V6.26173H35.7393V6.26074Z" stroke="#F4F3F2" stroke-width="1.04347" stroke-linecap="round" stroke-linejoin="round"/>
<path d="M33.6523 6.26074H33.6533V6.26173H33.6523V6.26074Z" stroke="#F4F3F2" stroke-width="1.04347" stroke-linecap="round" stroke-linejoin="round"/>
<path d="M31.5654 4.17383H39.9132" stroke="#F4F3F2" stroke-linecap="round" stroke-linejoin="round"/>
<path d="M37.8262 1.04297V2.08644" stroke="#F4F3F2" stroke-linecap="round" stroke-linejoin="round"/>
<path d="M33.6523 1.04297V2.08644" stroke="#F4F3F2" stroke-linecap="round" stroke-linejoin="round"/>
<g clip-path="url(#clip0_894_35490)">
<path d="M27.3389 4.60645L29.1586 3.15531L27.4238 1.15748" stroke="#F4F3F2" stroke-linecap="round" stroke-linejoin="round"/>
<path d="M19.7246 11.5107C19.3407 10.3346 19.3121 9.0727 19.6422 7.86861C19.9723 6.66452 20.6478 5.56648 21.5919 4.6993C22.536 3.83212 23.7108 3.23058 24.9829 2.96305C26.255 2.69551 27.5732 2.77272 28.7878 3.1859" stroke="#F4F3F2" stroke-width="1.4" stroke-linecap="round" stroke-linejoin="round"/>
</g>
<path d="M24.556 21.9604C27.3122 21.9604 29.5465 19.7308 29.5465 16.9802C29.5465 14.2296 27.3122 12 24.556 12C21.7997 12 19.5654 14.2296 19.5654 16.9802C19.5654 19.7308 21.7997 21.9604 24.556 21.9604Z" stroke="#F4F3F2" stroke-linecap="round" stroke-linejoin="round"/>
<path d="M25.9943 15.1113C25.6525 14.7701 25.0506 14.533 24.4972 14.5181M24.4972 14.5181C23.8384 14.5002 23.2495 14.7975 23.2495 15.6093C23.2495 17.1033 25.9943 16.3563 25.9943 17.8504C25.9943 18.7025 25.2637 19.0685 24.4972 19.0411M24.4972 14.5181V13.6172M23 18.3484C23.3214 18.7767 23.9198 19.0207 24.4972 19.0411M24.4972 19.0411V20.0915" stroke="#F4F3F2" stroke-linecap="round" stroke-linejoin="round"/>
<path d="M33.3504 19.312C32.721 19.6727 31.0707 20.4091 32.0758 21.3305C32.5668 21.7807 33.1137 22.1026 33.8012 22.1026H37.7243C38.4118 22.1026 38.9587 21.7807 39.4497 21.3305C40.4548 20.4091 38.8045 19.6727 38.1751 19.312C36.6992 18.4663 34.8264 18.4663 33.3504 19.312Z" stroke="#F4F3F2" stroke-linecap="round" stroke-linejoin="round"/>
<path d="M38.0506 14.6827C38.0506 15.9437 37.0262 16.9659 35.7626 16.9659C34.499 16.9659 33.4746 15.9437 33.4746 14.6827C33.4746 13.4217 34.499 12.3994 35.7626 12.3994C37.0262 12.3994 38.0506 13.4217 38.0506 14.6827Z" stroke="#F4F3F2"/>
<path d="M6.5453 33.1865C6.5453 33.8825 6.3053 34.4625 5.8253 34.9265C5.3533 35.3825 4.6293 35.6105 3.6533 35.6105H2.0453V39.1025H0.953297V30.7385H3.6533C4.5973 30.7385 5.3133 30.9665 5.8013 31.4225C6.2973 31.8785 6.5453 32.4665 6.5453 33.1865ZM3.6533 34.7105C4.2613 34.7105 4.7093 34.5785 4.9973 34.3145C5.2853 34.0505 5.4293 33.6745 5.4293 33.1865C5.4293 32.1545 4.8373 31.6385 3.6533 31.6385H2.0453V34.7105H3.6533ZM7.49452 35.7905C7.49452 35.1185 7.63052 34.5305 7.90252 34.0265C8.17452 33.5145 8.54652 33.1185 9.01852 32.8385C9.49852 32.5585 10.0305 32.4185 10.6145 32.4185C11.1905 32.4185 11.6905 32.5425 12.1145 32.7905C12.5385 33.0385 12.8545 33.3505 13.0625 33.7265V32.5265H14.1665V39.1025H13.0625V37.8785C12.8465 38.2625 12.5225 38.5825 12.0905 38.8385C11.6665 39.0865 11.1705 39.2105 10.6025 39.2105C10.0185 39.2105 9.49052 39.0665 9.01852 38.7785C8.54652 38.4905 8.17452 38.0865 7.90252 37.5665C7.63052 37.0465 7.49452 36.4545 7.49452 35.7905ZM13.0625 35.8025C13.0625 35.3065 12.9625 34.8745 12.7625 34.5065C12.5625 34.1385 12.2905 33.8585 11.9465 33.6665C11.6105 33.4665 11.2385 33.3665 10.8305 33.3665C10.4225 33.3665 10.0505 33.4625 9.71452 33.6545C9.37852 33.8465 9.11052 34.1265 8.91052 34.4945C8.71052 34.8625 8.61052 35.2945 8.61052 35.7905C8.61052 36.2945 8.71052 36.7345 8.91052 37.1105C9.11052 37.4785 9.37852 37.7625 9.71452 37.9625C10.0505 38.1545 10.4225 38.2505 10.8305 38.2505C11.2385 38.2505 11.6105 38.1545 11.9465 37.9625C12.2905 37.7625 12.5625 37.4785 12.7625 37.1105C12.9625 36.7345 13.0625 36.2985 13.0625 35.8025ZM21.6759 32.5265L17.7159 42.1985H16.5879L17.8839 39.0305L15.2319 32.5265H16.4439L18.5079 37.8545L20.5479 32.5265H21.6759ZM30.6816 32.4065C31.1936 32.4065 31.6496 32.5145 32.0496 32.7305C32.4496 32.9385 32.7656 33.2545 32.9976 33.6785C33.2296 34.1025 33.3456 34.6185 33.3456 35.2265V39.1025H32.2656V35.3825C32.2656 34.7265 32.1016 34.2265 31.7736 33.8825C31.4536 33.5305 31.0176 33.3545 30.4656 33.3545C29.8976 33.3545 29.4456 33.5385 29.1096 33.9065C28.7736 34.2665 28.6056 34.7905 28.6056 35.4785V39.1025H27.5256V35.3825C27.5256 34.7265 27.3616 34.2265 27.0336 33.8825C26.7136 33.5305 26.2776 33.3545 25.7256 33.3545C25.1576 33.3545 24.7056 33.5385 24.3696 33.9065C24.0336 34.2665 23.8656 34.7905 23.8656 35.4785V39.1025H22.7736V32.5265H23.8656V33.4745C24.0816 33.1305 24.3696 32.8665 24.7296 32.6825C25.0976 32.4985 25.5016 32.4065 25.9416 32.4065C26.4936 32.4065 26.9816 32.5305 27.4056 32.7785C27.8296 33.0265 28.1456 33.3905 28.3536 33.8705C28.5376 33.4065 28.8416 33.0465 29.2656 32.7905C29.6896 32.5345 30.1616 32.4065 30.6816 32.4065ZM41.1369 35.5625C41.1369 35.7705 41.1249 35.9905 41.1009 36.2225H35.8449C35.8849 36.8705 36.1049 37.3785 36.5049 37.7465C36.9129 38.1065 37.4049 38.2865 37.9809 38.2865C38.4529 38.2865 38.8449 38.1785 39.1569 37.9625C39.4769 37.7385 39.7009 37.4425 39.8289 37.0745H41.0049C40.8289 37.7065 40.4769 38.2225 39.9489 38.6225C39.4209 39.0145 38.7649 39.2105 37.9809 39.2105C37.3569 39.2105 36.7969 39.0705 36.3009 38.7905C35.8129 38.5105 35.4289 38.1145 35.1489 37.6025C34.8689 37.0825 34.7289 36.4825 34.7289 35.8025C34.7289 35.1225 34.8649 34.5265 35.1369 34.0145C35.4089 33.5025 35.7889 33.1105 36.2769 32.8385C36.7729 32.5585 37.3409 32.4185 37.9809 32.4185C38.6049 32.4185 39.1569 32.5545 39.6369 32.8265C40.1169 33.0985 40.4849 33.4745 40.7409 33.9545C41.0049 34.4265 41.1369 34.9625 41.1369 35.5625ZM40.0089 35.3345C40.0089 34.9185 39.9169 34.5625 39.7329 34.2665C39.5489 33.9625 39.2969 33.7345 38.9769 33.5825C38.6649 33.4225 38.3169 33.3425 37.9329 33.3425C37.3809 33.3425 36.9089 33.5185 36.5169 33.8705C36.1329 34.2225 35.9129 34.7105 35.8569 35.3345H40.0089ZM45.7823 32.4065C46.5823 32.4065 47.2303 32.6505 47.7263 33.1385C48.2223 33.6185 48.4703 34.3145 48.4703 35.2265V39.1025H47.3903V35.3825C47.3903 34.7265 47.2263 34.2265 46.8983 33.8825C46.5703 33.5305 46.1223 33.3545 45.5543 33.3545C44.9783 33.3545 44.5183 33.5345 44.1743 33.8945C43.8383 34.2545 43.6703 34.7785 43.6703 35.4665V39.1025H42.5783V32.5265H43.6703V33.4625C43.8863 33.1265 44.1783 32.8665 44.5463 32.6825C44.9223 32.4985 45.3343 32.4065 45.7823 32.4065ZM51.5861 33.4265V37.3025C51.5861 37.6225 51.6541 37.8505 51.7901 37.9865C51.9261 38.1145 52.1621 38.1785 52.4981 38.1785H53.3021V39.1025H52.3181C51.7101 39.1025 51.2541 38.9625 50.9501 38.6825C50.6461 38.4025 50.4941 37.9425 50.4941 37.3025V33.4265H49.6421V32.5265H50.4941V30.8705H51.5861V32.5265H53.3021V33.4265H51.5861ZM56.9532 39.2105C56.4492 39.2105 55.9972 39.1265 55.5972 38.9585C55.1972 38.7825 54.8812 38.5425 54.6492 38.2385C54.4172 37.9265 54.2892 37.5705 54.2652 37.1705H55.3932C55.4252 37.4985 55.5772 37.7665 55.8492 37.9745C56.1292 38.1825 56.4932 38.2865 56.9412 38.2865C57.3572 38.2865 57.6852 38.1945 57.9252 38.0105C58.1652 37.8265 58.2852 37.5945 58.2852 37.3145C58.2852 37.0265 58.1572 36.8145 57.9012 36.6785C57.6452 36.5345 57.2492 36.3945 56.7132 36.2585C56.2252 36.1305 55.8252 36.0025 55.5132 35.8745C55.2092 35.7385 54.9452 35.5425 54.7212 35.2865C54.5052 35.0225 54.3972 34.6785 54.3972 34.2545C54.3972 33.9185 54.4972 33.6105 54.6972 33.3305C54.8972 33.0505 55.1812 32.8305 55.5492 32.6705C55.9172 32.5025 56.3372 32.4185 56.8092 32.4185C57.5372 32.4185 58.1252 32.6025 58.5732 32.9705C59.0212 33.3385 59.2612 33.8425 59.2932 34.4825H58.2012C58.1772 34.1385 58.0372 33.8625 57.7812 33.6545C57.5332 33.4465 57.1972 33.3425 56.7732 33.3425C56.3812 33.3425 56.0692 33.4265 55.8372 33.5945C55.6052 33.7625 55.4892 33.9825 55.4892 34.2545C55.4892 34.4705 55.5572 34.6505 55.6932 34.7945C55.8372 34.9305 56.0132 35.0425 56.2212 35.1305C56.4372 35.2105 56.7332 35.3025 57.1092 35.4065C57.5812 35.5345 57.9652 35.6625 58.2612 35.7905C58.5572 35.9105 58.8092 36.0945 59.0172 36.3425C59.2332 36.5905 59.3452 36.9145 59.3532 37.3145C59.3532 37.6745 59.2532 37.9985 59.0532 38.2865C58.8532 38.5745 58.5692 38.8025 58.2012 38.9705C57.8412 39.1305 57.4252 39.2105 56.9532 39.2105Z" fill="#F4F3F2"/>
<defs>
<clipPath id="clip0_894_35490">
<rect width="12.5217" height="12" fill="white" transform="translate(18)"/>
</clipPath>
</defs>
</svg>
