<svg width="22" height="24" viewBox="0 0 22 24" fill="none" xmlns="http://www.w3.org/2000/svg">
<g id="Communication / Phone">
<path id="Vector" d="M6.99934 3H4.48083C3.5229 3 2.74634 3.8483 2.74634 4.89474C2.74634 13.7894 9.34707 21 17.4895 21C18.4474 21 19.224 20.1517 19.224 19.1053V16.3541C19.224 15.5363 18.7682 14.8008 18.0731 14.4971L15.6603 13.4428C15.036 13.17 14.3249 13.2931 13.8083 13.7634L13.185 14.3307C12.4576 14.993 11.3879 14.94 10.7183 14.2085L8.96343 12.2915C8.29385 11.56 8.24533 10.3916 8.85153 9.5969L9.37094 8.91603C9.80145 8.35169 9.91409 7.57495 9.66434 6.89288L8.69924 4.25722C8.4212 3.4979 7.74798 3 6.99934 3Z" stroke="#EFA949" stroke-width="1.5" stroke-linecap="round" stroke-linejoin="round"/>
</g>
</svg>
