<svg width="49" height="42" viewBox="0 0 49 42" fill="none" xmlns="http://www.w3.org/2000/svg">
<path d="M28.5 10L30.6494 10.6448C32.0226 11.0568 32.7092 11.2628 33.1046 11.7942C33.5 12.3256 33.5 13.0425 33.5 14.4761V22" stroke="#EFA949" stroke-width="1.5" stroke-linejoin="round"/>
<path d="M20.5 9L23.5 9M20.5 13L23.5 13" stroke="#EFA949" stroke-width="1.5" stroke-linecap="round" stroke-linejoin="round"/>
<path d="M24.5 22V19C24.5 18.0572 24.5 17.5858 24.2071 17.2929C23.9142 17 23.4428 17 22.5 17H21.5C20.5572 17 20.0858 17 19.7929 17.2929C19.5 17.5858 19.5 18.0572 19.5 19V22" stroke="#EFA949" stroke-width="1.5" stroke-linejoin="round"/>
<path d="M14.5 22L34.5 22" stroke="#EFA949" stroke-width="1.5" stroke-linecap="round"/>
<path d="M15.5 22V6.71724C15.5 4.20649 15.5 2.95111 16.2912 2.32824C17.0824 1.70537 18.2474 2.04355 20.5775 2.7199L25.5775 4.17122C26.9836 4.57937 27.6867 4.78344 28.0933 5.33965C28.5 5.89587 28.5 6.65344 28.5 8.16857V22" stroke="#EFA949" stroke-width="1.5" stroke-linecap="round" stroke-linejoin="round"/>
<path d="M1.15039 39V30.5449H4.33789C5.92578 30.5449 7.05078 31.6406 7.05078 33.2461V33.2578C7.05078 34.8633 5.92578 35.9824 4.33789 35.9824H2.20508V39H1.15039ZM4.06836 31.4824H2.20508V35.0449H4.06836C5.27539 35.0449 5.97266 34.3828 5.97266 33.2695V33.2578C5.97266 32.1445 5.27539 31.4824 4.06836 31.4824ZM8.65039 39V32.6836H9.66992V33.6211H9.76367C10.0039 32.959 10.5957 32.5723 11.4512 32.5723C11.6445 32.5723 11.8613 32.5957 11.9609 32.6133V33.6035C11.75 33.5684 11.5566 33.5449 11.334 33.5449C10.3613 33.5449 9.66992 34.1602 9.66992 35.0859V39H8.65039ZM15.6406 39.1113C13.8418 39.1113 12.7285 37.8691 12.7285 35.8477V35.8359C12.7285 33.8086 13.8418 32.5723 15.6406 32.5723C17.4395 32.5723 18.5527 33.8086 18.5527 35.8359V35.8477C18.5527 37.8691 17.4395 39.1113 15.6406 39.1113ZM15.6406 38.209C16.8359 38.209 17.5098 37.3359 17.5098 35.8477V35.8359C17.5098 34.3418 16.8359 33.4746 15.6406 33.4746C14.4453 33.4746 13.7715 34.3418 13.7715 35.8359V35.8477C13.7715 37.3359 14.4453 38.209 15.6406 38.209ZM20.1348 41.1094V32.6836H21.1543V33.6914H21.248C21.6348 32.9883 22.3379 32.5723 23.2168 32.5723C24.8164 32.5723 25.8652 33.8672 25.8652 35.8359V35.8477C25.8652 37.8281 24.8223 39.1113 23.2168 39.1113C22.3496 39.1113 21.5938 38.6777 21.248 38.0039H21.1543V41.1094H20.1348ZM22.9824 38.209C24.1367 38.209 24.8223 37.3184 24.8223 35.8477V35.8359C24.8223 34.3652 24.1367 33.4746 22.9824 33.4746C21.834 33.4746 21.1309 34.377 21.1309 35.8359V35.8477C21.1309 37.3066 21.834 38.209 22.9824 38.209ZM30.0371 39.1113C28.2324 39.1113 27.1426 37.8457 27.1426 35.8652V35.8594C27.1426 33.9082 28.2559 32.5723 29.9727 32.5723C31.6895 32.5723 32.7324 33.8496 32.7324 35.7363V36.1348H28.1855C28.2148 37.4414 28.9355 38.2031 30.0605 38.2031C30.916 38.2031 31.4434 37.7988 31.6133 37.418L31.6367 37.3652H32.6562L32.6445 37.4121C32.4277 38.2676 31.5254 39.1113 30.0371 39.1113ZM29.9668 33.4805C29.0293 33.4805 28.3145 34.1191 28.2031 35.3203H31.6953C31.5898 34.0723 30.8984 33.4805 29.9668 33.4805ZM34.3145 39V32.6836H35.334V33.6211H35.4277C35.668 32.959 36.2598 32.5723 37.1152 32.5723C37.3086 32.5723 37.5254 32.5957 37.625 32.6133V33.6035C37.4141 33.5684 37.2207 33.5449 36.998 33.5449C36.0254 33.5449 35.334 34.1602 35.334 35.0859V39H34.3145ZM41.2461 39.0469C39.9453 39.0469 39.4004 38.5664 39.4004 37.3594V33.5273H38.4043V32.6836H39.4004V31.0488H40.4551V32.6836H41.8379V33.5273H40.4551V37.1016C40.4551 37.8457 40.7129 38.1445 41.3691 38.1445C41.5508 38.1445 41.6504 38.1387 41.8379 38.1211V38.9883C41.6387 39.0234 41.4453 39.0469 41.2461 39.0469ZM43.9004 41.2148C43.7656 41.2148 43.5898 41.2031 43.4492 41.1797V40.3418C43.5723 40.3652 43.7305 40.3711 43.8711 40.3711C44.4512 40.3711 44.8027 40.1074 45.0312 39.3809L45.1484 39.0059L42.8105 32.6836H43.9004L45.6348 37.8809H45.7285L47.457 32.6836H48.5293L46.0625 39.3867C45.541 40.8047 45.0195 41.2148 43.9004 41.2148Z" fill="#EFA949"/>
</svg>
