<svg width="24" height="24" viewBox="0 0 24 24" fill="none" xmlns="http://www.w3.org/2000/svg">
<g clip-path="url(#clip0_669_29337)">
<path d="M14 13H16V14H14V13ZM18 14H20V13H18V14ZM14 18H16V17H14V18ZM18 18H20V17H18V18ZM14 6H16V5H14V6ZM18 6H20V5H18V6ZM14 10H16V9H14V10ZM18 10H20V9H18V10ZM24 2.5V24H0V8.329C0 7.661 0.26 7.033 0.732 6.561L3.439 3.854C4.524 2.769 6.475 2.769 7.56 3.854L9.999 6.293V2.5C9.999 1.122 11.121 0 12.499 0H21.499C22.877 0 24 1.122 24 2.5ZM10 8.329C10 7.928 9.844 7.552 9.561 7.268L6.854 4.561C6.141 3.848 4.86 3.848 4.147 4.561L1.439 7.268C1.156 7.552 1 7.928 1 8.329V23H10V8.329ZM23 2.5C23 1.673 22.327 1 21.5 1H12.5C11.673 1 11 1.673 11 2.5V23H23V2.5ZM4 14H7V13H4V14ZM4 10H7V9H4V10ZM4 18H7V17H4V18Z" fill="#EFA949"/>
</g>
<defs>
<clipPath id="clip0_669_29337">
<rect width="24" height="24" fill="white"/>
</clipPath>
</defs>
</svg>
