<svg width="24" height="24" viewBox="0 0 24 24" fill="none" xmlns="http://www.w3.org/2000/svg">
<path d="M13.7495 12.7084C13.0508 12.7084 12.4594 12.4664 11.9755 11.9825C11.4915 11.4985 11.2495 10.9071 11.2495 10.2084C11.2495 9.50973 11.4915 8.9184 11.9755 8.43443C12.4594 7.95046 13.0508 7.70848 13.7495 7.70848C14.4482 7.70848 15.0395 7.95046 15.5235 8.43443C16.0074 8.9184 16.2494 9.50973 16.2494 10.2084C16.2494 10.9071 16.0074 11.4985 15.5235 11.9825C15.0395 12.4664 14.4482 12.7084 13.7495 12.7084ZM7.15333 15.8046C6.65623 15.8046 6.23067 15.6276 5.87665 15.2736C5.52265 14.9196 5.34565 14.494 5.34565 13.9969V6.41998C5.34565 5.92288 5.52265 5.49732 5.87665 5.1433C6.23067 4.7893 6.65623 4.6123 7.15333 4.6123H20.3456C20.8427 4.6123 21.2683 4.7893 21.6223 5.1433C21.9763 5.49732 22.1533 5.92288 22.1533 6.41998V13.9969C22.1533 14.494 21.9763 14.9196 21.6223 15.2736C21.2683 15.6276 20.8427 15.8046 20.3456 15.8046H7.15333ZM8.6533 14.3046H18.8456C18.8456 13.8059 19.0226 13.3799 19.3766 13.0267C19.7306 12.6735 20.1562 12.4969 20.6533 12.4969V7.91995C20.1546 7.91995 19.7286 7.74295 19.3754 7.38895C19.0222 7.03494 18.8456 6.60938 18.8456 6.11228H8.6533C8.6533 6.611 8.4763 7.03696 8.1223 7.39016C7.76829 7.74336 7.34273 7.91995 6.84563 7.91995V12.4969C7.34435 12.4969 7.7703 12.6739 8.1235 13.0279C8.4767 13.3819 8.6533 13.8075 8.6533 14.3046ZM3.65338 19.3045C3.15626 19.3045 2.7307 19.1275 2.3767 18.7735C2.0227 18.4195 1.8457 17.994 1.8457 17.4969V8.34305C1.8457 8.13055 1.9176 7.95244 2.0614 7.80871C2.20522 7.66496 2.38342 7.59308 2.596 7.59308C2.8086 7.59308 2.98669 7.66496 3.13028 7.80871C3.27386 7.95244 3.34565 8.13055 3.34565 8.34305V17.4969C3.34565 17.5738 3.37771 17.6443 3.44183 17.7084C3.50593 17.7725 3.57644 17.8046 3.65338 17.8046H18.4225C18.635 17.8046 18.8131 17.8765 18.9569 18.0203C19.1006 18.1641 19.1725 18.3423 19.1725 18.5549C19.1725 18.7675 19.1006 18.9455 18.9569 19.0891C18.8131 19.2327 18.635 19.3045 18.4225 19.3045H3.65338ZM7.15333 14.3046H6.84563V6.11228H7.15333C7.06999 6.11228 6.99788 6.14273 6.93698 6.20363C6.87608 6.26453 6.84563 6.33665 6.84563 6.41998V13.9969C6.84563 14.0802 6.87608 14.1523 6.93698 14.2132C6.99788 14.2741 7.06999 14.3046 7.15333 14.3046Z" fill="#EFA949"/>
</svg>
