<svg width="41" height="40" viewBox="0 0 41 40" fill="none" xmlns="http://www.w3.org/2000/svg">
<circle cx="20.5" cy="20" r="20" fill="#EFA949"/>
<path d="M14.1367 20.6562H19.498V26.0176C19.498 26.5625 19.9463 27.0195 20.5 27.0195C21.0537 27.0195 21.502 26.5625 21.502 26.0176V20.6562H26.8633C27.4082 20.6562 27.8652 20.208 27.8652 19.6543C27.8652 19.1006 27.4082 18.6523 26.8633 18.6523H21.502V13.291C21.502 12.7461 21.0537 12.2891 20.5 12.2891C19.9463 12.2891 19.498 12.7461 19.498 13.291V18.6523H14.1367C13.5918 18.6523 13.1348 19.1006 13.1348 19.6543C13.1348 20.208 13.5918 20.6562 14.1367 20.6562Z" fill="#24232A"/>
</svg>
