<svg width="49" height="46" viewBox="0 0 49 46" fill="none" xmlns="http://www.w3.org/2000/svg">
<path d="M32.6604 6.71092L25.0001 2.28827C24.6907 2.10964 24.3095 2.10964 24.0001 2.28827L16.3398 6.71092C16.0304 6.88955 15.8398 7.21968 15.8398 7.57695V16.4222C15.8398 16.7795 16.0304 17.1096 16.3398 17.2883L24.0001 21.7109C24.3095 21.8896 24.6907 21.8896 25.0001 21.7109L32.6604 17.2883C32.9698 17.1096 33.1604 16.7795 33.1604 16.4222V7.57695C33.1604 7.21968 32.9698 6.88955 32.6604 6.71092Z" stroke="#24232A" stroke-width="1.5" stroke-linecap="round" stroke-linejoin="round"/>
<path d="M24.5 15C26.1569 15 27.5 13.6569 27.5 12C27.5 10.3431 26.1569 9 24.5 9C22.8431 9 21.5 10.3431 21.5 12C21.5 13.6569 22.8431 15 24.5 15Z" stroke="#24232A" stroke-width="1.5" stroke-linecap="round" stroke-linejoin="round"/>
<path d="M3.95881 41.084C3.40681 41.084 2.91081 40.988 2.47081 40.796C2.03881 40.596 1.69881 40.324 1.45081 39.98C1.20281 39.628 1.07481 39.224 1.06681 38.768H2.23081C2.27081 39.16 2.43081 39.492 2.71081 39.764C2.99881 40.028 3.41481 40.16 3.95881 40.16C4.47881 40.16 4.88681 40.032 5.18281 39.776C5.48681 39.512 5.63881 39.176 5.63881 38.768C5.63881 38.448 5.55081 38.188 5.37481 37.988C5.19881 37.788 4.97881 37.636 4.71481 37.532C4.45081 37.428 4.09481 37.316 3.64681 37.196C3.09481 37.052 2.65081 36.908 2.31481 36.764C1.98681 36.62 1.70281 36.396 1.46281 36.092C1.23081 35.78 1.11481 35.364 1.11481 34.844C1.11481 34.388 1.23081 33.984 1.46281 33.632C1.69481 33.28 2.01881 33.008 2.43481 32.816C2.85881 32.624 3.34281 32.528 3.88681 32.528C4.67081 32.528 5.31081 32.724 5.80681 33.116C6.31081 33.508 6.59481 34.028 6.65881 34.676H5.45881C5.41881 34.356 5.25081 34.076 4.95481 33.836C4.65881 33.588 4.26681 33.464 3.77881 33.464C3.32281 33.464 2.95081 33.584 2.66281 33.824C2.37481 34.056 2.23081 34.384 2.23081 34.808C2.23081 35.112 2.31481 35.36 2.48281 35.552C2.65881 35.744 2.87081 35.892 3.11881 35.996C3.37481 36.092 3.73081 36.204 4.18681 36.332C4.73881 36.484 5.18281 36.636 5.51881 36.788C5.85481 36.932 6.14281 37.16 6.38281 37.472C6.62281 37.776 6.74281 38.192 6.74281 38.72C6.74281 39.128 6.63481 39.512 6.41881 39.872C6.20281 40.232 5.88281 40.524 5.45881 40.748C5.03481 40.972 4.53481 41.084 3.95881 41.084ZM14.3498 37.46C14.3498 37.668 14.3378 37.888 14.3138 38.12H9.05778C9.09778 38.768 9.31778 39.276 9.71778 39.644C10.1258 40.004 10.6178 40.184 11.1938 40.184C11.6658 40.184 12.0578 40.076 12.3698 39.86C12.6898 39.636 12.9138 39.34 13.0418 38.972H14.2178C14.0418 39.604 13.6898 40.12 13.1618 40.52C12.6338 40.912 11.9778 41.108 11.1938 41.108C10.5698 41.108 10.0098 40.968 9.51378 40.688C9.02578 40.408 8.64178 40.012 8.36178 39.5C8.08178 38.98 7.94178 38.38 7.94178 37.7C7.94178 37.02 8.07778 36.424 8.34978 35.912C8.62178 35.4 9.00178 35.008 9.48978 34.736C9.98578 34.456 10.5538 34.316 11.1938 34.316C11.8178 34.316 12.3698 34.452 12.8498 34.724C13.3298 34.996 13.6978 35.372 13.9538 35.852C14.2178 36.324 14.3498 36.86 14.3498 37.46ZM13.2218 37.232C13.2218 36.816 13.1298 36.46 12.9458 36.164C12.7618 35.86 12.5098 35.632 12.1898 35.48C11.8778 35.32 11.5298 35.24 11.1458 35.24C10.5938 35.24 10.1218 35.416 9.72978 35.768C9.34578 36.12 9.12578 36.608 9.06978 37.232H13.2218ZM17.1232 35.324V39.2C17.1232 39.52 17.1912 39.748 17.3272 39.884C17.4632 40.012 17.6992 40.076 18.0352 40.076H18.8392V41H17.8552C17.2472 41 16.7912 40.86 16.4872 40.58C16.1832 40.3 16.0312 39.84 16.0312 39.2V35.324H15.1792V34.424H16.0312V32.768H17.1232V34.424H18.8392V35.324H17.1232ZM21.4943 35.324V39.2C21.4943 39.52 21.5623 39.748 21.6983 39.884C21.8343 40.012 22.0703 40.076 22.4063 40.076H23.2103V41H22.2263C21.6183 41 21.1623 40.86 20.8583 40.58C20.5543 40.3 20.4023 39.84 20.4023 39.2V35.324H19.5503V34.424H20.4023V32.768H21.4943V34.424H23.2103V35.324H21.4943ZM25.0974 33.356C24.8894 33.356 24.7134 33.284 24.5694 33.14C24.4254 32.996 24.3534 32.82 24.3534 32.612C24.3534 32.404 24.4254 32.228 24.5694 32.084C24.7134 31.94 24.8894 31.868 25.0974 31.868C25.2974 31.868 25.4654 31.94 25.6014 32.084C25.7454 32.228 25.8174 32.404 25.8174 32.612C25.8174 32.82 25.7454 32.996 25.6014 33.14C25.4654 33.284 25.2974 33.356 25.0974 33.356ZM25.6254 34.424V41H24.5334V34.424H25.6254ZM30.6905 34.304C31.4905 34.304 32.1385 34.548 32.6345 35.036C33.1305 35.516 33.3785 36.212 33.3785 37.124V41H32.2985V37.28C32.2985 36.624 32.1345 36.124 31.8065 35.78C31.4785 35.428 31.0305 35.252 30.4625 35.252C29.8865 35.252 29.4265 35.432 29.0825 35.792C28.7465 36.152 28.5785 36.676 28.5785 37.364V41H27.4865V34.424H28.5785V35.36C28.7945 35.024 29.0865 34.764 29.4545 34.58C29.8305 34.396 30.2425 34.304 30.6905 34.304ZM37.8743 34.316C38.4423 34.316 38.9383 34.44 39.3623 34.688C39.7943 34.936 40.1143 35.248 40.3223 35.624V34.424H41.4263V41.144C41.4263 41.744 41.2983 42.276 41.0423 42.74C40.7863 43.212 40.4183 43.58 39.9383 43.844C39.4663 44.108 38.9143 44.24 38.2823 44.24C37.4183 44.24 36.6983 44.036 36.1223 43.628C35.5463 43.22 35.2063 42.664 35.1023 41.96H36.1823C36.3023 42.36 36.5503 42.68 36.9263 42.92C37.3023 43.168 37.7543 43.292 38.2823 43.292C38.8823 43.292 39.3703 43.104 39.7463 42.728C40.1303 42.352 40.3223 41.824 40.3223 41.144V39.764C40.1063 40.148 39.7863 40.468 39.3623 40.724C38.9383 40.98 38.4423 41.108 37.8743 41.108C37.2903 41.108 36.7583 40.964 36.2783 40.676C35.8063 40.388 35.4343 39.984 35.1623 39.464C34.8903 38.944 34.7543 38.352 34.7543 37.688C34.7543 37.016 34.8903 36.428 35.1623 35.924C35.4343 35.412 35.8063 35.016 36.2783 34.736C36.7583 34.456 37.2903 34.316 37.8743 34.316ZM40.3223 37.7C40.3223 37.204 40.2223 36.772 40.0223 36.404C39.8223 36.036 39.5503 35.756 39.2063 35.564C38.8703 35.364 38.4983 35.264 38.0903 35.264C37.6823 35.264 37.3103 35.36 36.9743 35.552C36.6383 35.744 36.3703 36.024 36.1703 36.392C35.9703 36.76 35.8703 37.192 35.8703 37.688C35.8703 38.192 35.9703 38.632 36.1703 39.008C36.3703 39.376 36.6383 39.66 36.9743 39.86C37.3103 40.052 37.6823 40.148 38.0903 40.148C38.4983 40.148 38.8703 40.052 39.2063 39.86C39.5503 39.66 39.8223 39.376 40.0223 39.008C40.2223 38.632 40.3223 38.196 40.3223 37.7ZM45.5997 41.108C45.0957 41.108 44.6437 41.024 44.2437 40.856C43.8437 40.68 43.5277 40.44 43.2957 40.136C43.0637 39.824 42.9357 39.468 42.9117 39.068H44.0397C44.0717 39.396 44.2237 39.664 44.4957 39.872C44.7757 40.08 45.1397 40.184 45.5877 40.184C46.0037 40.184 46.3317 40.092 46.5717 39.908C46.8117 39.724 46.9317 39.492 46.9317 39.212C46.9317 38.924 46.8037 38.712 46.5477 38.576C46.2917 38.432 45.8957 38.292 45.3597 38.156C44.8717 38.028 44.4717 37.9 44.1597 37.772C43.8557 37.636 43.5917 37.44 43.3677 37.184C43.1517 36.92 43.0437 36.576 43.0437 36.152C43.0437 35.816 43.1437 35.508 43.3437 35.228C43.5437 34.948 43.8277 34.728 44.1957 34.568C44.5637 34.4 44.9837 34.316 45.4557 34.316C46.1837 34.316 46.7717 34.5 47.2197 34.868C47.6677 35.236 47.9077 35.74 47.9397 36.38H46.8477C46.8237 36.036 46.6837 35.76 46.4277 35.552C46.1797 35.344 45.8437 35.24 45.4197 35.24C45.0277 35.24 44.7157 35.324 44.4837 35.492C44.2517 35.66 44.1357 35.88 44.1357 36.152C44.1357 36.368 44.2037 36.548 44.3397 36.692C44.4837 36.828 44.6597 36.94 44.8677 37.028C45.0837 37.108 45.3797 37.2 45.7557 37.304C46.2277 37.432 46.6117 37.56 46.9077 37.688C47.2037 37.808 47.4557 37.992 47.6637 38.24C47.8797 38.488 47.9917 38.812 47.9997 39.212C47.9997 39.572 47.8997 39.896 47.6997 40.184C47.4997 40.472 47.2157 40.7 46.8477 40.868C46.4877 41.028 46.0717 41.108 45.5997 41.108Z" fill="#24232A"/>
</svg>
