<svg width="25" height="24" viewBox="0 0 25 24" fill="none" xmlns="http://www.w3.org/2000/svg">
<path d="M6.02026 17L6.02026 7M18.0608 7L18.0608 17" stroke="#EFA949" stroke-width="1.5" stroke-linecap="round" stroke-linejoin="round"/>
<path d="M18.0608 17C18.0608 18.6569 15.3654 20 12.0405 20C8.71563 20 6.02026 18.6569 6.02026 17" stroke="#EFA949" stroke-width="1.5" stroke-linecap="round" stroke-linejoin="round"/>
<path d="M18.0608 12C18.0608 13.6569 15.3654 15 12.0405 15C8.71563 15 6.02026 13.6569 6.02026 12" stroke="#EFA949" stroke-width="1.5" stroke-linecap="round" stroke-linejoin="round"/>
<path d="M12.0405 10C15.3654 10 18.0608 8.65685 18.0608 7C18.0608 5.34315 15.3654 4 12.0405 4C8.71563 4 6.02026 5.34315 6.02026 7C6.02026 8.65685 8.71563 10 12.0405 10Z" stroke="#EFA949" stroke-width="1.5" stroke-linecap="round" stroke-linejoin="round"/>
<path d="M6.02026 17L6.02026 7M18.0608 7L18.0608 17" stroke="#EFA949" stroke-width="1.5" stroke-linecap="round" stroke-linejoin="round"/>
<path d="M18.0608 17C18.0608 18.6569 15.3654 20 12.0405 20C8.71563 20 6.02026 18.6569 6.02026 17" stroke="#EFA949" stroke-width="1.5" stroke-linecap="round" stroke-linejoin="round"/>
<path d="M18.0608 12C18.0608 13.6569 15.3654 15 12.0405 15C8.71563 15 6.02026 13.6569 6.02026 12" stroke="#EFA949" stroke-width="1.5" stroke-linecap="round" stroke-linejoin="round"/>
<path d="M12.0405 10C15.3654 10 18.0608 8.65685 18.0608 7C18.0608 5.34315 15.3654 4 12.0405 4C8.71563 4 6.02026 5.34315 6.02026 7C6.02026 8.65685 8.71563 10 12.0405 10Z" stroke="#EFA949" stroke-width="1.5" stroke-linecap="round" stroke-linejoin="round"/>
</svg>
