<svg width="49" height="46" viewBox="0 0 49 46" fill="none" xmlns="http://www.w3.org/2000/svg">
<path fill-rule="evenodd" clip-rule="evenodd" d="M18.2502 7C18.2502 5.20507 19.7053 3.75 21.5002 3.75C23.2951 3.75 24.7502 5.20507 24.7502 7C24.7502 8.79493 23.2951 10.25 21.5002 10.25C19.7053 10.25 18.2502 8.79493 18.2502 7ZM21.5002 2.25C18.8769 2.25 16.7502 4.37665 16.7502 7C16.7502 9.62335 18.8769 11.75 21.5002 11.75C24.1236 11.75 26.2502 9.62335 26.2502 7C26.2502 4.37665 24.1236 2.25 21.5002 2.25ZM27.6461 5.80443C27.8253 5.7689 28.0122 5.75 28.205 5.75C29.6785 5.75 30.7502 6.82206 30.7502 8C30.7502 9.17794 29.6785 10.25 28.205 10.25C28.0122 10.25 27.8253 10.2311 27.6461 10.1956C27.2398 10.115 26.8451 10.379 26.7645 10.7853C26.684 11.1916 26.948 11.5863 27.3543 11.6669C27.6293 11.7214 27.914 11.75 28.205 11.75C30.3713 11.75 32.2502 10.1358 32.2502 8C32.2502 5.86423 30.3713 4.25 28.205 4.25C27.914 4.25 27.6293 4.27855 27.3543 4.3331C26.948 4.41369 26.684 4.80839 26.7645 5.21469C26.8451 5.62099 27.2398 5.88503 27.6461 5.80443ZM30.0002 13.75C29.586 13.75 29.2502 14.0858 29.2502 14.5C29.2502 14.9142 29.586 15.25 30.0002 15.25C30.2685 15.25 30.7446 15.332 31.3093 15.5072C31.8627 15.6789 32.4394 15.921 32.9053 16.2C33.3994 16.4959 33.6521 16.7641 33.7286 16.938C33.7563 17.0011 33.7513 17.0286 33.7462 17.0473C33.7384 17.0762 33.7029 17.1676 33.5436 17.3097C32.8773 17.9042 32.2252 18.2502 31.4459 18.2502H31.0047C30.5905 18.2502 30.2547 18.586 30.2547 19.0002C30.2547 19.4144 30.5905 19.7502 31.0047 19.7502H31.4459C32.7363 19.7502 33.7304 19.1532 34.5422 18.429C34.8523 18.1524 35.0896 17.8244 35.1939 17.4401C35.3009 17.0455 35.2474 16.6659 35.1019 16.3346C34.8317 15.7197 34.2389 15.2502 33.676 14.9131C33.0849 14.5592 32.3931 14.273 31.7538 14.0746C31.1259 13.8798 30.4853 13.75 30.0002 13.75ZM25.7824 16.0052C25.6293 15.9213 25.4814 15.8404 25.3442 15.7616C22.9951 14.4128 20.0053 14.4128 17.6562 15.7616C17.5191 15.8404 17.3712 15.9213 17.218 16.0052C16.6659 16.3074 16.0453 16.6472 15.6118 17.0563C15.3417 17.3113 15.2629 17.4898 15.2518 17.5872C15.2465 17.6338 15.2368 17.7964 15.5619 18.0951C16.3497 18.8188 17.1321 19.25 18.0709 19.25H24.9295C25.8683 19.25 26.6508 18.8188 27.4385 18.0951C27.7637 17.7964 27.7539 17.6338 27.7486 17.5872C27.7376 17.4898 27.6587 17.3113 27.3886 17.0563C26.9551 16.6472 26.3345 16.3074 25.7824 16.0052ZM26.0911 14.4608C26.1765 14.5098 26.2839 14.5682 26.4068 14.635C26.9592 14.9352 27.8255 15.406 28.4182 15.9654C28.7872 16.3138 29.169 16.7999 29.2391 17.4182C29.3149 18.0872 29.0068 18.6913 28.4533 19.1997C27.5243 20.0532 26.3947 20.75 24.9295 20.75H18.0709C16.6057 20.75 15.4761 20.0532 14.5471 19.1997C13.9936 18.6913 13.6855 18.0872 13.7614 17.4182C13.8315 16.7999 14.2132 16.3138 14.5822 15.9654C15.1749 15.406 16.0413 14.9352 16.5936 14.635C16.7166 14.5682 16.824 14.5098 16.9093 14.4608C19.7209 12.8464 23.2795 12.8464 26.0911 14.4608Z" fill="#F4F3F2"/>
<path d="M6.55442 32.636V33.524H4.27442V41H3.18242V33.524H0.890422V32.636H6.55442ZM13.8986 37.46C13.8986 37.668 13.8866 37.888 13.8626 38.12H8.60661C8.64661 38.768 8.86661 39.276 9.26661 39.644C9.67461 40.004 10.1666 40.184 10.7426 40.184C11.2146 40.184 11.6066 40.076 11.9186 39.86C12.2386 39.636 12.4626 39.34 12.5906 38.972H13.7666C13.5906 39.604 13.2386 40.12 12.7106 40.52C12.1826 40.912 11.5266 41.108 10.7426 41.108C10.1186 41.108 9.55861 40.968 9.06261 40.688C8.57461 40.408 8.19061 40.012 7.91061 39.5C7.63061 38.98 7.49061 38.38 7.49061 37.7C7.49061 37.02 7.62661 36.424 7.89861 35.912C8.17061 35.4 8.55061 35.008 9.03861 34.736C9.53461 34.456 10.1026 34.316 10.7426 34.316C11.3666 34.316 11.9186 34.452 12.3986 34.724C12.8786 34.996 13.2466 35.372 13.5026 35.852C13.7666 36.324 13.8986 36.86 13.8986 37.46ZM12.7706 37.232C12.7706 36.816 12.6786 36.46 12.4946 36.164C12.3106 35.86 12.0586 35.632 11.7386 35.48C11.4266 35.32 11.0786 35.24 10.6946 35.24C10.1426 35.24 9.67061 35.416 9.27861 35.768C8.89461 36.12 8.67461 36.608 8.61861 37.232H12.7706ZM18.544 34.304C19.344 34.304 19.992 34.548 20.488 35.036C20.984 35.516 21.232 36.212 21.232 37.124V41H20.152V37.28C20.152 36.624 19.988 36.124 19.66 35.78C19.332 35.428 18.884 35.252 18.316 35.252C17.74 35.252 17.28 35.432 16.936 35.792C16.6 36.152 16.432 36.676 16.432 37.364V41H15.34V34.424H16.432V35.36C16.648 35.024 16.94 34.764 17.308 34.58C17.684 34.396 18.096 34.304 18.544 34.304ZM22.6078 37.688C22.6078 37.016 22.7438 36.428 23.0158 35.924C23.2878 35.412 23.6598 35.016 24.1318 34.736C24.6118 34.456 25.1438 34.316 25.7278 34.316C26.3038 34.316 26.8038 34.44 27.2278 34.688C27.6518 34.936 27.9678 35.248 28.1758 35.624V34.424H29.2798V41H28.1758V39.776C27.9598 40.16 27.6358 40.48 27.2038 40.736C26.7798 40.984 26.2838 41.108 25.7158 41.108C25.1318 41.108 24.6038 40.964 24.1318 40.676C23.6598 40.388 23.2878 39.984 23.0158 39.464C22.7438 38.944 22.6078 38.352 22.6078 37.688ZM28.1758 37.7C28.1758 37.204 28.0758 36.772 27.8758 36.404C27.6758 36.036 27.4038 35.756 27.0598 35.564C26.7238 35.364 26.3518 35.264 25.9438 35.264C25.5358 35.264 25.1638 35.36 24.8278 35.552C24.4918 35.744 24.2238 36.024 24.0238 36.392C23.8238 36.76 23.7238 37.192 23.7238 37.688C23.7238 38.192 23.8238 38.632 24.0238 39.008C24.2238 39.376 24.4918 39.66 24.8278 39.86C25.1638 40.052 25.5358 40.148 25.9438 40.148C26.3518 40.148 26.7238 40.052 27.0598 39.86C27.4038 39.66 27.6758 39.376 27.8758 39.008C28.0758 38.632 28.1758 38.196 28.1758 37.7ZM34.3292 34.304C35.1292 34.304 35.7772 34.548 36.2732 35.036C36.7692 35.516 37.0172 36.212 37.0172 37.124V41H35.9372V37.28C35.9372 36.624 35.7732 36.124 35.4452 35.78C35.1172 35.428 34.6692 35.252 34.1012 35.252C33.5252 35.252 33.0652 35.432 32.7212 35.792C32.3852 36.152 32.2172 36.676 32.2172 37.364V41H31.1252V34.424H32.2172V35.36C32.4332 35.024 32.7252 34.764 33.0932 34.58C33.4692 34.396 33.8812 34.304 34.3292 34.304ZM40.133 35.324V39.2C40.133 39.52 40.201 39.748 40.337 39.884C40.473 40.012 40.709 40.076 41.045 40.076H41.849V41H40.865C40.257 41 39.801 40.86 39.497 40.58C39.193 40.3 39.041 39.84 39.041 39.2V35.324H38.189V34.424H39.041V32.768H40.133V34.424H41.849V35.324H40.133ZM45.5 41.108C44.996 41.108 44.544 41.024 44.144 40.856C43.744 40.68 43.428 40.44 43.196 40.136C42.964 39.824 42.836 39.468 42.812 39.068H43.94C43.972 39.396 44.124 39.664 44.396 39.872C44.676 40.08 45.04 40.184 45.488 40.184C45.904 40.184 46.232 40.092 46.472 39.908C46.712 39.724 46.832 39.492 46.832 39.212C46.832 38.924 46.704 38.712 46.448 38.576C46.192 38.432 45.796 38.292 45.26 38.156C44.772 38.028 44.372 37.9 44.06 37.772C43.756 37.636 43.492 37.44 43.268 37.184C43.052 36.92 42.944 36.576 42.944 36.152C42.944 35.816 43.044 35.508 43.244 35.228C43.444 34.948 43.728 34.728 44.096 34.568C44.464 34.4 44.884 34.316 45.356 34.316C46.084 34.316 46.672 34.5 47.12 34.868C47.568 35.236 47.808 35.74 47.84 36.38H46.748C46.724 36.036 46.584 35.76 46.328 35.552C46.08 35.344 45.744 35.24 45.32 35.24C44.928 35.24 44.616 35.324 44.384 35.492C44.152 35.66 44.036 35.88 44.036 36.152C44.036 36.368 44.104 36.548 44.24 36.692C44.384 36.828 44.56 36.94 44.768 37.028C44.984 37.108 45.28 37.2 45.656 37.304C46.128 37.432 46.512 37.56 46.808 37.688C47.104 37.808 47.356 37.992 47.564 38.24C47.78 38.488 47.892 38.812 47.9 39.212C47.9 39.572 47.8 39.896 47.6 40.184C47.4 40.472 47.116 40.7 46.748 40.868C46.388 41.028 45.972 41.108 45.5 41.108Z" fill="#F4F3F2"/>
</svg>
