<svg width="20" height="20" viewBox="0 0 20 20" fill="none" xmlns="http://www.w3.org/2000/svg">
<path d="M3.42765 0.585551L19.3976 16.5236C19.6778 16.803 19.8687 17.1592 19.9464 17.5472C20.024 17.9351 19.9848 18.3374 19.8337 18.7031C19.6827 19.0688 19.4266 19.3815 19.0978 19.6015C18.769 19.8216 18.3823 19.9393 17.9866 19.9396H2.01465C1.48422 19.9396 0.975508 19.7288 0.600435 19.3538C0.225362 18.9787 0.0146484 18.47 0.0146484 17.9396V2.00055C0.0147327 1.60517 0.132005 1.21869 0.351648 0.889928C0.571292 0.561169 0.883451 0.304888 1.24869 0.153465C1.61392 0.002042 2.01584 -0.037729 2.40367 0.039177C2.7915 0.116083 3.14783 0.306215 3.42765 0.585551ZM2.01465 1.99955V17.9396H17.9846L2.01465 2.00055V1.99955ZM4.01465 9.35255C4.01469 9.1548 4.07336 8.9615 4.18325 8.79709C4.29313 8.63268 4.44929 8.50454 4.63199 8.42887C4.81469 8.3532 5.01573 8.3334 5.20968 8.37197C5.40363 8.41054 5.5818 8.50574 5.72165 8.64555L11.3076 14.2316C11.4478 14.3714 11.5433 14.5496 11.5821 14.7437C11.6208 14.9378 11.6011 15.1391 11.5254 15.322C11.4497 15.5049 11.3214 15.6612 11.1568 15.7712C10.9922 15.8811 10.7986 15.9397 10.6006 15.9396H5.01465C4.74943 15.9396 4.49508 15.8342 4.30754 15.6467C4.12001 15.4591 4.01465 15.2048 4.01465 14.9396V9.35255ZM6.01465 13.9396H8.01465L6.01465 11.9396V13.9396ZM13.0146 16.9396C13.2799 16.9396 13.5342 17.0449 13.7218 17.2324C13.9093 17.42 14.0146 17.6743 14.0146 17.9396C14.0146 18.2048 13.9093 18.4591 13.7218 18.6467C13.5342 18.8342 13.2799 18.9396 13.0146 18.9396C12.7494 18.9396 12.4951 18.8342 12.3075 18.6467C12.12 18.4591 12.0146 18.2048 12.0146 17.9396C12.0146 17.6743 12.12 17.42 12.3075 17.2324C12.4951 17.0449 12.7494 16.9396 13.0146 16.9396ZM5.01465 16.9396C5.27986 16.9396 5.53422 17.0449 5.72176 17.2324C5.90929 17.42 6.01465 17.6743 6.01465 17.9396C6.01465 18.2048 5.90929 18.4591 5.72176 18.6467C5.53422 18.8342 5.27986 18.9396 5.01465 18.9396C4.74943 18.9396 4.49508 18.8342 4.30754 18.6467C4.12001 18.4591 4.01465 18.2048 4.01465 17.9396C4.01465 17.6743 4.12001 17.42 4.30754 17.2324C4.49508 17.0449 4.74943 16.9396 5.01465 16.9396ZM9.01465 16.9396C9.27987 16.9396 9.53422 17.0449 9.72176 17.2324C9.90929 17.42 10.0146 17.6743 10.0146 17.9396C10.0146 18.2048 9.90929 18.4591 9.72176 18.6467C9.53422 18.8342 9.27987 18.9396 9.01465 18.9396C8.74943 18.9396 8.49508 18.8342 8.30754 18.6467C8.12001 18.4591 8.01465 18.2048 8.01465 17.9396C8.01465 17.6743 8.12001 17.42 8.30754 17.2324C8.49508 17.0449 8.74943 16.9396 9.01465 16.9396Z" fill="#ADACB1"/>
</svg>
