<svg width="24" height="24" viewBox="0 0 24 24" fill="none" xmlns="http://www.w3.org/2000/svg">
<g id="not Visible icon">
<path id="Vector" d="M4 3.99805L20 19.998" stroke="#ADACB1" stroke-width="1.5" stroke-linecap="round" stroke-linejoin="round"/>
<path id="Vector_2" d="M16.5 16.754C15.1474 17.4827 13.6186 17.998 12 17.998C6.47715 17.998 2 11.998 2 11.998C2 11.998 4.08842 9.19928 7.17205 7.42475M19.5 14.6317C21.0559 13.2633 22 11.998 22 11.998C22 11.998 17.5228 5.99805 12 5.99805C11.6625 5.99805 11.3289 6.02045 11 6.06253" stroke="#ADACB1" stroke-width="1.5" stroke-linecap="round" stroke-linejoin="round"/>
<path id="Vector_3" d="M13.3229 13.4982C12.9703 13.8094 12.5072 13.9982 12 13.9982C10.8954 13.9982 10 13.1028 10 11.9982C10 11.4587 10.2136 10.9691 10.5609 10.6094" stroke="#ADACB1" stroke-width="2" stroke-linecap="round" stroke-linejoin="round"/>
</g>
</svg>
